<?xml version="1.0" standalone="no"?>
<!DOCTYPE svg PUBLIC "-//W3C//DTD SVG 1.1//EN" "http://www.w3.org/Graphics/SVG/1.1/DTD/svg11.dtd" >
<svg xmlns="http://www.w3.org/2000/svg" xmlns:xlink="http://www.w3.org/1999/xlink" version="1.1">
<metadata>
Created by FontForge 20161003 at Thu Dec 14 20:18:31 2017
 By www-data
Cyrillic adaptation By He Rez AD. Copyright (c) 2015 by Kimmy Lee. All rights reserved.
</metadata>
<defs>
<font id="us" horiz-adv-x="420" >
  <font-face 
    font-family="us"
    font-weight="400"
    font-stretch="normal"
    units-per-em="1000"
    panose-1="0 0 0 0 0 0 0 0 0 0"
    ascent="750"
    descent="-250"
    x-height="480"
    cap-height="720"
    bbox="0 -211 795 860.5"
    underline-thickness="50"
    underline-position="-150"
    unicode-range="U+001D-FFFC"
  />
<missing-glyph horiz-adv-x="500" 
 />
    <glyph glyph-name=".notdef" horiz-adv-x="500" 
 />
    <glyph glyph-name=".null" horiz-adv-x="0" 
 />
    <glyph glyph-name="nonmarkingreturn" horiz-adv-x="500" 
 />
    <glyph glyph-name="NULL" horiz-adv-x="0" 
 />
    <glyph glyph-name="NULL" horiz-adv-x="0" 
 />
    <glyph glyph-name="space" unicode=" " horiz-adv-x="130" 
 />
    <glyph glyph-name="exclam" unicode="!" horiz-adv-x="270" 
d="M75 42v56q0 9 6 13l47 28q6 4 14 0l48 -28q4 -2 4.5 -5t0.5 -8v-56q0 -4 -0.5 -7.5t-4.5 -5.5l-48 -27q-7 -4 -14 0l-47 27q-6 4 -6 13zM135 225q-13 0 -13 12v470q0 13 13 13t13 -13v-470q0 -12 -13 -12zM96 52q0 -5 4 -8l31 -18q4 -3 9 0l30 18q4 3 4 8v36q0 5 -4 8
l-30 18q-4 3 -9 0l-31 -18q-4 -3 -4 -8v-36z" />
    <glyph glyph-name="quotedbl" unicode="&#x22;" 
d="M75 620v59q0 7 6 12l47 27q6 4 14 0l48 -27q5 -3 5 -12v-59q0 -9 -5 -11l-46 -27v-25q0 -9 -9 -9q-8 0 -8 9v25l-46 27q-6 4 -6 11zM96 632q0 -5 4 -8l31 -18q4 -3 9 0l30 18q4 3 4 8v36q0 5 -4 8l-30 18q-4 3 -9 0l-31 -18q-4 -3 -4 -8v-36zM225 620v59q0 7 6 12l47 27
q6 4 14 0l48 -27q5 -3 5 -12v-59q0 -9 -5 -11l-46 -27v-25q0 -9 -9 -9q-8 0 -8 9v25l-46 27q-6 4 -6 11zM246 632q0 -5 4 -8l31 -18q4 -3 9 0l30 18q4 3 4 8v36q0 5 -4 8l-30 18q-4 3 -9 0l-31 -18q-4 -3 -4 -8v-36z" />
    <glyph glyph-name="numbersign" unicode="#" horiz-adv-x="421" 
d="M78 352q-7 11 1 18l47 45v292q0 13 13 13q12 0 12 -13v-268l118 110v158q0 13 13 13q12 0 12 -13v-134l30 28q9 9 18 -1q9 -9 -1 -18l-47 -44v-190l30 28q9 9 18 -1q3 -4 3.5 -9t-4.5 -9l-47 -44v-300q0 -13 -12 -13q-13 0 -13 13v276l-118 -110v-166q0 -13 -12 -13
q-13 0 -13 13v142l-30 -28q-9 -9 -18 0q-7 11 1 18l47 45v190l-30 -28q-9 -9 -18 0zM269 514l-118 -110v-190l118 110v190z" />
    <glyph glyph-name="dollar" unicode="$" 
d="M210 -140q-13 0 -13 13v134l-118 112q-4 4 -4 9v117q0 13 13 13q12 0 12 -13v-112l97 -91v313l-118 111q-4 4 -4 9v117q0 5 4 9l118 111v135q0 13 13 13t13 -13v-135l118 -111q4 -4 4 -9v-117q0 -13 -12 -13q-13 0 -13 13v111l-97 91v-312l118 -111q4 -4 4 -9v-117
q0 -5 -4 -9l-118 -112v-134q0 -13 -13 -13zM223 331v-289l97 91v107zM100 481l97 -92v288l-97 -91v-105z" />
    <glyph glyph-name="percent" unicode="%" horiz-adv-x="422" 
d="M322 712q2 5 6.5 7t9.5 0t7.5 -6.5t0.5 -9.5l-245 -694q-2 -5 -7 -7.5t-10 -0.5t-7 6.5t0 9.5zM76 533v59q0 8 6 11l47 28q7 4 14 0l48 -28q5 -3 5 -11v-59q0 -9 -5 -11l-48 -28q-8 -4 -14 0l-47 28q-6 3 -6 11zM97 544q0 -5 4 -8l31 -18q4 -3 9 0l30 18q4 3 4 8v37
q0 5 -4 8l-30 17q-5 2 -9 0l-31 -17q-4 -3 -4 -8v-37zM226 128v59q0 8 6 11l47 28q7 3 14 0l48 -28q5 -3 5 -11v-59q0 -9 -5 -11l-48 -28q-8 -4 -14 0l-47 28q-6 3 -6 11zM247 139q0 -5 4 -8l31 -18q4 -3 9 0l30 18q4 3 4 8v37q0 5 -4 8l-30 17q-5 2 -9 0l-31 -17
q-4 -3 -4 -8v-37z" />
    <glyph glyph-name="ampersand" unicode="&#x26;" horiz-adv-x="421" 
d="M210 690l-110 -104v-135l77 -73l24 22q4 4 9 4q6 0 9 -4l122 -115q10 -9 1 -18t-18 -1l-114 108l-14 -14l145 -137q10 -9 1 -18t-18 0l-147 138l-77 -73v-137l110 -103l114 107q9 9 18 0t-1 -18l-122 -116q-3 -3 -9 -3t-9 3l-122 116q-4 4 -4 8v148q0 6 4 10l80 75
l-80 76q-4 4 -4 9v148q0 4 4 8l122 115q4 4 9 4t9 -4l122 -115q4 -4 4 -10v-116q0 -13 -12 -13q-13 0 -13 13v111z" />
    <glyph glyph-name="quotesingle" unicode="'" horiz-adv-x="270" 
d="M75 620v59q0 7 6 12l47 27q6 4 14 0l48 -27q5 -3 5 -12v-59q0 -9 -5 -11l-46 -27v-25q0 -9 -9 -9q-8 0 -8 9v25l-46 27q-6 4 -6 11zM96 632q0 -5 4 -8l31 -18q4 -3 9 0l30 18q4 3 4 8v36q0 5 -4 8l-30 18q-4 3 -9 0l-31 -18q-4 -3 -4 -8v-36z" />
    <glyph glyph-name="parenleft" unicode="(" 
d="M75 666q0 5 4 9l122 115q4 4 9 4h123q12 0 12 -13t-12 -13h-118l-115 -107v-594l115 -108h118q12 0 12 -12q0 -13 -12 -13h-123q-6 0 -9 3l-122 116q-4 4 -4 9v604v0z" />
    <glyph glyph-name="parenright" unicode=")" 
d="M345 62q0 -5 -4 -9l-122 -116q-3 -3 -9 -3h-123q-12 0 -12 13q0 12 12 12h118l115 108v594l-115 107h-118q-12 0 -12 13t12 13h123q5 0 9 -4l122 -115q4 -4 4 -9v-604z" />
    <glyph glyph-name="asterisk" unicode="*" horiz-adv-x="291" 
d="M146 578q-13 0 -13 13v27l-19 -19q-4 -4 -9 -4q-13 0 -13 13q0 5 4 9l19 19h-27q-13 0 -13 13t13 13h27l-19 19q-4 4 -4 9q0 13 13 13q5 0 9 -4l19 -19v27q0 13 13 13q12 0 12 -13v-27l19 19q4 4 9 4q13 0 13 -13q0 -5 -4 -9l-19 -19h27q13 0 13 -13t-13 -13h-27l19 -19
q4 -4 4 -9q0 -13 -13 -13q-5 0 -9 4l-19 19v-27q0 -13 -12 -13z" />
    <glyph glyph-name="plus" unicode="+" 
d="M75 360q0 13 13 13h109v109q0 13 13 13t13 -13v-109h110q12 0 12 -13t-12 -13h-110v-110q0 -12 -13 -12t-13 12v110h-109q-13 0 -13 13z" />
    <glyph glyph-name="comma" unicode="," horiz-adv-x="271" 
d="M76 98q0 9 6 13l47 28q8 4 14 0l48 -28q4 -2 4.5 -5t0.5 -8v-56q0 -4 -0.5 -7.5t-4.5 -5.5l-99 -56q-4 -2 -8.5 -1t-6.5 5t-1 8.5t5 6.5l33 18l-32 19q-6 4 -6 13v56zM97 52q0 -5 4 -8l31 -18q4 -2 9 0l30 18q4 3 4 8v36q0 5 -4 8l-30 18q-5 2 -9 0l-31 -18q-4 -3 -4 -8
v-36z" />
    <glyph glyph-name="hyphen" unicode="-" 
d="M75 360q0 13 13 13h245q12 0 12 -13t-12 -13h-245q-13 0 -13 13z" />
    <glyph glyph-name="period" unicode="." horiz-adv-x="270" 
d="M75 42v56q0 9 6 13l47 28q7 4 14 0l48 -28q4 -2 4.5 -5t0.5 -8v-56q0 -4 -0.5 -7.5t-4.5 -5.5l-48 -27q-7 -4 -14 0l-47 27q-6 4 -6 13zM96 52q0 -5 4 -8l31 -18q4 -3 9 0l30 18q4 3 4 8v36q0 5 -4 8l-30 18q-4 3 -9 0l-31 -18q-4 -3 -4 -8v-36z" />
    <glyph glyph-name="slash" unicode="/" horiz-adv-x="422" 
d="M322 712q2 5 6.5 7t9.5 0t7.5 -6.5t0.5 -9.5l-245 -694q-2 -5 -7 -7.5t-10 -0.5t-7 6.5t0 9.5z" />
    <glyph glyph-name="zero" unicode="0" 
d="M345 128q0 -5 -4 -9l-122 -116q-3 -3 -9 -3t-9 3l-122 116q-4 4 -4 9v464q0 5 4 9l122 115q4 4 9 4t9 -4l122 -115q4 -4 4 -9v-464zM210 690l-110 -104v-311l220 206v105zM100 240v-107l110 -103l110 103v313z" />
    <glyph glyph-name="one" unicode="1" horiz-adv-x="268" 
d="M180 0q-13 0 -13 13v665l-100 -95q-9 -9 -18 0t0 18l122 115q5 5 13.5 3t8.5 -11v-695q0 -13 -13 -13z" />
    <glyph glyph-name="two" unicode="2" 
d="M210 690l-110 -104v-111q0 -13 -12 -13q-13 0 -13 13v117q0 5 4 9l122 115q4 4 9 4t9 -4l122 -115q4 -4 4 -9v-117q0 -5 -4 -9l-241 -226v-215h233q12 0 12 -12q0 -13 -12 -13h-246q-10 0 -12 11v234q0 5 4 9l241 227v105z" />
    <glyph glyph-name="three" unicode="3" 
d="M210 690l-114 -107q-9 -9 -18 0q-8 9 1 18l122 115q4 4 9 4t9 -4l122 -115q4 -4 4 -11v-114q0 -6 -4 -10l-114 -108l114 -109q4 -4 4 -9v-112q0 -6 -4 -10l-122 -115q-3 -3 -9 -3t-9 3l-122 116q-9 9 -1 18q9 9 18 0l114 -107l110 103v102l-118 111q-1 1 -1 2h-43
q-13 0 -13 12q0 13 13 13h48l114 108v105z" />
    <glyph glyph-name="four" unicode="4" 
d="M333 0q-13 0 -13 13v335h-110q-6 0 -9 3l-122 115q-4 4 -4 10v231q0 13 13 13q12 0 12 -13v-226l115 -108h105v334q0 13 13 13q12 0 12 -13v-694q0 -13 -12 -13z" />
    <glyph glyph-name="five" unicode="5" 
d="M320 134v105l-241 227q-4 4 -4 9v234q2 11 12 11h246q12 0 12 -13q0 -12 -12 -12h-233v-215l241 -226q4 -4 4 -9v-117q0 -5 -4 -9l-122 -115q-4 -4 -9 -4t-9 4l-122 115q-4 4 -4 9v117q0 13 13 13q12 0 12 -13v-111l110 -104z" />
    <glyph glyph-name="six" unicode="6" horiz-adv-x="421" 
d="M100 586v-204l101 95q4 4 9 4t9 -4l122 -115q4 -4 4 -10v-224q0 -5 -4 -9l-122 -116q-3 -3 -9 -3t-9 3l-122 116q-4 4 -4 9v464q0 5 4 9l122 115q4 4 9 4t9 -4l122 -115q10 -9 1 -18t-18 0l-114 107zM320 133v214l-110 104l-110 -104v-214l110 -103z" />
    <glyph glyph-name="seven" unicode="7" 
d="M75 13v232q0 5 4 9l241 226v214h-232q-13 0 -13 13t13 13h245q5 0 8.5 -3t3.5 -8v-234q0 -6 -4 -9l-241 -227v-226q0 -13 -12 -13q-13 0 -13 13z" />
    <glyph glyph-name="eight" unicode="8" 
d="M75 592q0 5 4 9l122 115q4 4 9 4t9 -4l122 -115q4 -4 4 -9v-147q0 -5 -4 -9l-79 -76l79 -75q4 -4 4 -9v-148q0 -5 -4 -9l-122 -116q-3 -3 -9 -3t-9 3l-122 116q-4 4 -4 9v148q0 5 4 9l80 75l-80 76q-4 4 -4 9v147zM210 690l-110 -104v-136l81 -76h58l81 76v136zM210 30
l110 103v137l-81 77h-58l-81 -77v-137z" />
    <glyph glyph-name="nine" unicode="9" horiz-adv-x="421" 
d="M321 134v204l-101 -95q-4 -4 -9 -4t-9 4l-122 115q-4 4 -4 10v224q0 5 4 9l122 116q3 3 9 3t9 -3l122 -116q4 -4 4 -9v-464q0 -5 -4 -9l-122 -115q-4 -4 -9 -4t-9 4l-122 115q-10 9 -1 18t18 0l114 -107zM101 587v-214l110 -104l110 104v214l-110 103z" />
    <glyph glyph-name="colon" unicode=":" horiz-adv-x="270" 
d="M75 331v56q0 9 6 13l47 28q7 4 14 0l48 -28q4 -2 4.5 -5t0.5 -8v-56q0 -4 -0.5 -7.5t-4.5 -5.5l-48 -27q-7 -4 -14 0l-47 27q-6 4 -6 13zM75 42v56q0 9 6 13l47 28q7 4 14 0l48 -28q4 -2 4.5 -5t0.5 -8v-56q0 -4 -0.5 -7.5t-4.5 -5.5l-48 -27q-7 -4 -14 0l-47 27
q-6 4 -6 13zM96 52q0 -5 4 -8l31 -18q4 -3 9 0l30 18q4 3 4 8v36q0 5 -4 8l-30 18q-4 3 -9 0l-31 -18q-4 -3 -4 -8v-36zM96 341q0 -5 4 -8l31 -18q4 -3 9 0l30 18q4 3 4 8v36q0 5 -4 8l-30 18q-4 3 -9 0l-31 -18q-4 -3 -4 -8v-36z" />
    <glyph glyph-name="semicolon" unicode=";" horiz-adv-x="271" 
d="M76 98q0 9 6 13l47 28q8 4 14 0l48 -28q4 -2 4.5 -5t0.5 -8v-56q0 -4 -0.5 -7.5t-4.5 -5.5l-99 -56q-4 -2 -8.5 -1t-6.5 5t-1 8.5t5 6.5l33 18l-32 19q-6 4 -6 13v56zM97 52q0 -5 4 -8l31 -18q4 -2 9 0l30 18q4 3 4 8v36q0 5 -4 8l-30 18q-5 2 -9 0l-31 -18q-4 -3 -4 -8
v-36zM75 331v56q0 9 6 13l47 28q7 3 14 0l48 -28q4 -2 4.5 -5t0.5 -8v-56q0 -4 -0.5 -7.5t-4.5 -5.5l-48 -27q-7 -4 -14 0l-47 27q-6 4 -6 13zM96 341q0 -5 4 -8l31 -18q4 -3 9 0l30 18q4 3 4 8v36q0 5 -4 8l-30 18q-5 2 -9 0l-31 -18q-4 -3 -4 -8v-36z" />
    <glyph glyph-name="less" unicode="&#x3c;" horiz-adv-x="291" 
d="M105 430l107 -114q9 -9 0 -18q-4 -4 -9 -3.5t-9 4.5l-116 122q-3 3 -3 9t3 9l116 122q9 9 18 1q9 -9 0 -18z" />
    <glyph glyph-name="equal" unicode="=" 
d="M75 385q0 13 13 13h245q12 0 12 -13q0 -12 -12 -12h-245q-13 0 -13 12zM75 334q0 13 13 13h245q12 0 12 -13q0 -12 -12 -12h-245q-13 0 -13 12z" />
    <glyph glyph-name="greater" unicode="&#x3e;" horiz-adv-x="291" 
d="M79 544q-9 9 0 18q4 4 9 3.5t9 -4.5l116 -122q3 -3 3 -9t-3 -9l-116 -122q-4 -4 -9 -4.5t-9 3.5q-9 9 0 18l107 114z" />
    <glyph glyph-name="question" unicode="?" 
d="M211 225q-13 0 -13 12v124q0 5 4 9l118 111v105l-110 104l-114 -107q-9 -9 -18 0q-8 9 1 18l122 115q4 4 9 4q6 0 9 -4l122 -115q4 -4 4 -9v-117q0 -5 -4 -9l-118 -111v-118q0 -12 -12 -12zM150 42v56q0 9 6 13l47 28q6 4 14 0l48 -28q4 -2 4.5 -5t0.5 -8v-56
q0 -4 -0.5 -7.5t-4.5 -5.5l-48 -27q-7 -4 -14 0l-47 27q-6 4 -6 13zM171 52q0 -5 4 -8l31 -18q4 -3 9 0l30 18q4 3 4 8v36q0 5 -4 8l-30 18q-4 3 -9 0l-31 -18q-4 -3 -4 -8v-36z" />
    <glyph glyph-name="at" unicode="@" horiz-adv-x="421" 
d="M210 451l-114 -108q-4 -4 -9 -3.5t-9 4.5q-8 9 1 18l122 115q4 4 9 4t9 -4l122 -115q4 -4 4 -10v-224q0 -5 -4 -9l-122 -116q-3 -3 -9 -3t-9 3l-122 116q-4 4 -4 9v117q0 5 4 9l122 116q4 4 9 4t9 -4l101 -95v72zM100 240v-107l110 -103l110 103v107l-110 103zM210 -110
l-114 107q-9 9 -18 0q-8 -9 1 -18l122 -116q3 -3 9 -3t9 3l122 116q10 9 1 18t-18 0zM210 591l-114 -108q-4 -4 -9 -3.5t-9 4.5q-8 9 1 18l122 115q4 4 9 4t9 -4l122 -115q10 -9 1 -18q-4 -4 -9 -4.5t-9 3.5z" />
    <glyph glyph-name="A" unicode="A" 
d="M100 131v-118q0 -13 -12 -13q-13 0 -13 13v579q0 5 4 9l122 115q4 4 9 4t9 -4l122 -115q4 -4 4 -9v-579q0 -13 -12 -13q-13 0 -13 13v325zM210 690l-110 -104v-420l220 207v213z" />
    <glyph glyph-name="B" unicode="B" 
d="M229 360l112 -106q4 -4 4 -9v-116q0 -6 -4 -10l-122 -116q-3 -3 -9 -3q-5 0 -9 3l-122 116q-4 4 -4 10v463q0 5 4 9l122 115q4 4 9 4t9 -4l122 -115q4 -4 4 -9v-117q0 -5 -4 -9zM320 240l-114 108h-106v-215l110 -103l110 103v107zM210 690l-110 -104v-213h106l114 108
v105z" />
    <glyph glyph-name="C" unicode="C" horiz-adv-x="401" 
d="M210 690l-110 -104v-453l110 -103l114 107q9 9 18 0t-1 -18l-122 -116q-3 -3 -9 -3t-9 3l-122 116q-4 4 -4 10v463q0 5 4 9l122 115q4 4 9 4t9 -4l122 -115q10 -9 1 -18t-18 0z" />
    <glyph glyph-name="D" unicode="D" 
d="M210 720q6 0 9 -3l122 -116q4 -4 4 -8v-466q0 -4 -4 -8l-122 -116q-3 -3 -9 -3h-124q-11 0 -11 13v694q0 13 11 13h124zM210 690h-110v-660h110l110 103v454z" />
    <glyph glyph-name="E" unicode="E" horiz-adv-x="396" 
d="M210 690l-110 -104v-213h116q13 0 13 -13q0 -12 -13 -12h-116v-215l110 -103l114 107q9 9 18 0t-1 -18l-122 -116q-3 -3 -9 -3t-9 3l-122 116q-4 4 -4 10v463q0 5 4 9l122 115q4 4 9 4t9 -4l122 -115q10 -9 1 -18t-18 0z" />
    <glyph glyph-name="F" unicode="F" horiz-adv-x="381" 
d="M100 373h116q13 0 13 -13q0 -12 -13 -12h-116v-335q0 -13 -12 -13q-13 0 -13 13v579q0 5 4 9l122 115q4 4 9 4t9 -4l122 -115q10 -9 1 -18t-18 0l-114 107l-110 -104v-213z" />
    <glyph glyph-name="G" unicode="G" horiz-adv-x="416" 
d="M320 133v117l-108 101q-9 9 0 18t18 1l111 -106q4 -4 4 -8v-127q0 -6 -4 -10l-122 -116q-3 -3 -9 -3t-9 3l-122 116q-4 4 -4 9v465q0 4 4 8l122 115q4 4 9 4t9 -4l122 -115q10 -9 1 -18t-18 0l-114 107l-110 -104v-453l110 -103z" />
    <glyph glyph-name="H" unicode="H" 
d="M100 166l220 207v334q0 13 13 13q12 0 12 -13v-695q0 -8 -9 -12h-6q-10 3 -10 12v326l-220 -207v-119q0 -8 -9 -12h-6q-10 3 -10 12v695q0 13 13 13q12 0 12 -13v-541z" />
    <glyph glyph-name="I" unicode="I" horiz-adv-x="205" 
d="M103 0q-13 0 -13 13v694q0 13 13 13q12 0 12 -13v-694q0 -13 -12 -13z" />
    <glyph glyph-name="J" unicode="J" horiz-adv-x="395" 
d="M320 129q0 -6 -4 -10l-122 -116q-3 -3 -9 -3t-9 3l-122 116q-9 9 -1 18q9 9 18 0l114 -107l110 103v561h-232q-13 0 -13 13t13 13h245q12 0 12 -13v-578z" />
    <glyph glyph-name="K" unicode="K" horiz-adv-x="430" 
d="M211 373l114 108v226q0 13 13 13q12 0 12 -13v-232q0 -5 -4 -9l-112 -106l112 -106q4 -4 4 -9v-232q0 -13 -12 -13q-13 0 -13 13v227l-114 108h-106v-335q0 -13 -12 -13q-13 0 -13 13v694q0 13 13 13q12 0 12 -13v-334h106z" />
    <glyph glyph-name="L" unicode="L" horiz-adv-x="401" 
d="M324 137q9 9 18 0t-1 -18l-122 -116q-3 -3 -9 -3t-9 3l-122 116q-4 4 -4 9v579q0 13 13 13q12 0 12 -13v-574l110 -103z" />
    <glyph glyph-name="M" unicode="M" horiz-adv-x="665" 
d="M210 690l-110 -104v-573q0 -13 -12 -13q-13 0 -13 13v579q0 5 4 9l122 115q4 4 9 4t9 -4l114 -107l113 107q4 4 9 4t9 -4l122 -115q4 -4 4 -9v-579q0 -13 -12 -13q-13 0 -13 13v573l-110 104l-110 -104v-573q0 -13 -12 -13q-13 0 -13 13v573z" />
    <glyph glyph-name="N" unicode="N" 
d="M210 690l-110 -103v-574q0 -13 -12 -13q-13 0 -13 13v579q0 5 4 9l122 116q3 3 9 3t9 -3l122 -116q4 -4 4 -9v-579q0 -13 -12 -13q-13 0 -13 13v574z" />
    <glyph glyph-name="O" unicode="O" 
d="M210 690l-110 -104v-453l110 -103l110 103v453zM75 592q0 5 4 9l122 115q4 4 9 4t9 -4l122 -115q4 -4 4 -9v-464q0 -5 -4 -9l-122 -116q-3 -3 -9 -3t-9 3l-122 116q-4 4 -4 9v464z" />
    <glyph glyph-name="P" unicode="P" horiz-adv-x="415" 
d="M345 368q0 -6 -4 -10l-122 -115q-4 -4 -9 -4q-4 0 -9 4l-101 95v-325q0 -13 -12 -13q-13 0 -13 13v579q0 6 4 9l122 115q4 4 9 4t9 -4l122 -115q4 -4 4 -9v-224zM210 690l-110 -104v-213l110 -104l110 104v213z" />
    <glyph glyph-name="Q" unicode="Q" horiz-adv-x="421" 
d="M290 70l51 -48q10 -9 1 -18t-18 -1l-52 50l-53 -50q-3 -3 -9 -3q-5 0 -9 3l-122 116q-4 4 -4 9v464q0 5 4 9l122 115q4 4 9 4t9 -4l122 -115q4 -4 4 -9v-464q0 -5 -4 -9zM210 690l-110 -104v-453l110 -103l43 40l-51 49q-4 3 -4.5 8.5t3.5 9.5q9 9 18 0l53 -49l48 45v453
z" />
    <glyph glyph-name="R" unicode="R" 
d="M287 306l54 -52q4 -4 4 -9v-232q0 -13 -12 -13q-13 0 -13 13v227l-52 49l-49 -46q-3 -4 -9 -4q-5 0 -9 4l-101 95v-325q0 -13 -12 -13q-13 0 -13 13v579q0 5 4 9l122 115q4 4 9 4t9 -4l122 -115q4 -4 4 -9v-224q0 -6 -4 -10zM210 690l-110 -104v-213l110 -104l110 104
v213z" />
    <glyph glyph-name="S" unicode="S" horiz-adv-x="423" 
d="M98 586v-105l241 -227q4 -4 4 -9v-117q0 -5 -4 -9l-122 -116q-3 -3 -9 -3t-9 3l-122 116q-4 4 -4 9v117q0 13 13 13q12 0 12 -13v-112l110 -103l110 103v107l-241 226q-4 4 -4 9v117q0 5 4 9l122 115q4 4 9 4t9 -4l122 -115q4 -4 4 -9v-117q0 -13 -12 -13q-13 0 -13 13
v111l-110 104z" />
    <glyph glyph-name="T" unicode="T" horiz-adv-x="341" 
d="M157 678l-101 -95q-9 -9 -18 0q-8 9 1 18l122 115q4 4 9 4t9 -4l122 -115q10 -9 1 -18t-18 0l-101 95v-665q0 -13 -13 -13t-13 13v665z" />
    <glyph glyph-name="U" unicode="U" 
d="M100 133l110 -103h110v677q0 13 13 13q12 0 12 -13v-694q0 -13 -12 -13h-123q-6 0 -9 3l-122 116q-4 4 -4 8v580q0 13 13 13q12 0 12 -13v-574z" />
    <glyph glyph-name="V" unicode="V" 
d="M320 133v574q0 13 13 13q12 0 12 -13v-579q0 -5 -4 -9l-122 -116q-3 -3 -9 -3t-9 3l-122 116q-4 4 -4 9v579q0 13 13 13q12 0 12 -13v-574l110 -103z" />
    <glyph glyph-name="W" unicode="W" horiz-adv-x="665" 
d="M320 134v573q0 13 13 13q12 0 12 -13v-573l110 -104l110 104v573q0 13 13 13q12 0 12 -13v-579q0 -5 -4 -9l-122 -115q-4 -4 -9 -4t-9 4l-113 107l-114 -107q-4 -4 -9 -4t-9 4l-122 115q-4 4 -4 9v579q0 13 13 13q12 0 12 -13v-573l110 -104z" />
    <glyph glyph-name="X" unicode="X" 
d="M345 445q0 -5 -4 -9l-79 -76l79 -75q4 -4 4 -9v-1v-263q0 -12 -12 -12q-13 0 -13 12v258l-81 77h-58l-81 -77v-258q0 -12 -12 -12q-13 0 -13 12v263v1q0 5 4 9l80 75l-80 76q-4 4 -4 9v262q0 13 13 13q12 0 12 -13v-257l81 -76h58l81 76v257q0 13 13 13q12 0 12 -13v-262
v0z" />
    <glyph glyph-name="Y" unicode="Y" horiz-adv-x="410" 
d="M315 481v226q0 13 13 13q12 0 12 -13v-231q0 -6 -4 -10l-118 -112v-341q0 -13 -13 -13t-13 13v341l-118 112q-4 4 -4 10v231q0 13 13 13q12 0 12 -13v-226l110 -104z" />
    <glyph glyph-name="Z" unicode="Z" horiz-adv-x="423" 
d="M208 690l-110 -104v-111q0 -13 -12 -13q-13 0 -13 13v117q0 5 4 9l122 115q4 4 9 4t9 -4l122 -115q4 -4 4 -9v-117q0 -5 -4 -9l-241 -226v-107l110 -103l110 103v112q0 13 13 13q12 0 12 -13v-117q0 -5 -4 -9l-122 -116q-3 -3 -9 -3t-9 3l-122 116q-4 4 -4 9v117q0 5 4 9
l241 227v105z" />
    <glyph glyph-name="bracketleft" unicode="[" horiz-adv-x="298" 
d="M219 856q9 -9 0 -18l-119 -111v-804l119 -111q9 -9 0 -18t-18 -1l-122 116q-4 4 -4 10v813q0 5 4 9l122 115q9 9 18 0z" />
    <glyph glyph-name="backslash" unicode="\" horiz-adv-x="422" 
d="M345 17q2 -5 0 -9.5t-7 -6.5t-10 0.5t-7 7.5l-245 694q-2 5 0.5 9.5t7.5 6.5t9.5 0t6.5 -7z" />
    <glyph glyph-name="bracketright" unicode="]" horiz-adv-x="298" 
d="M79 856q9 9 18 0l122 -115q4 -4 4 -9v-813q0 -6 -4 -10l-122 -116q-9 -8 -18 1t0 18l119 111v804l-119 111q-9 9 0 18z" />
    <glyph glyph-name="asciicircum" unicode="^" horiz-adv-x="421" 
d="M210 690l-114 -107q-9 -9 -18 0q-8 9 1 18l122 115q4 4 9 4t9 -4l122 -115q10 -9 1 -18t-18 0z" />
    <glyph glyph-name="underscore" unicode="_" 
d="M75 -73q0 13 13 13h245q12 0 12 -13t-12 -13h-245q-13 0 -13 13z" />
    <glyph glyph-name="grave" unicode="`" horiz-adv-x="224" 
d="M144 812q4 -4 4.5 -9t-3.5 -9q-9 -10 -18 -1l-48 45q-9 9 0 18t18 0z" />
    <glyph glyph-name="a" unicode="a" 
d="M210 451l-114 -108q-4 -4 -9 -3.5t-9 4.5q-8 9 1 18l122 115q4 4 9 4t9 -4l122 -115q4 -4 4 -10v-224q0 -5 -4 -9l-122 -116q-3 -3 -9 -3t-9 3l-122 116q-4 4 -4 9v117q0 5 4 9l122 116q4 4 9 4t9 -4l101 -95v72zM100 240v-107l110 -103l110 103v107l-110 103z" />
    <glyph glyph-name="b" unicode="b" 
d="M75 707q0 13 13 13q12 0 12 -13v-325l101 95q4 4 9 4t9 -4l122 -115q4 -4 4 -10v-224q0 -5 -4 -9l-122 -116q-3 -3 -9 -3t-9 3l-122 116q-4 4 -4 9v579zM100 347v-214l110 -103l110 103v214l-110 104z" />
    <glyph glyph-name="c" unicode="c" horiz-adv-x="421" 
d="M210 451l-110 -104v-214l110 -103l114 107q9 9 18 0t-1 -18l-122 -116q-3 -3 -9 -3t-9 3l-122 116q-4 4 -4 9v224q0 6 4 10l122 115q4 4 9 4t9 -4l122 -115q10 -9 1 -18q-4 -4 -9 -4.5t-9 3.5z" />
    <glyph glyph-name="d" unicode="d" 
d="M345 128q0 -5 -4 -9l-122 -116q-3 -3 -9 -3t-9 3l-122 116q-4 4 -4 9v224q0 6 4 10l122 115q4 4 9 4t9 -4l101 -95v325q0 13 13 13q12 0 12 -13v-579zM210 451l-110 -104v-214l110 -103l110 103v214z" />
    <glyph glyph-name="e" unicode="e" horiz-adv-x="421" 
d="M110 125l100 -95l114 107q9 9 18 0t-1 -18l-122 -116q-3 -3 -9 -3t-9 3l-122 116q-4 4 -4 9v224q0 6 4 10l122 115q4 4 9 4t9 -4l122 -115q4 -4 4 -10q0 -5 -4 -9zM210 451l-110 -104v-196l214 201z" />
    <glyph glyph-name="f" unicode="f" horiz-adv-x="421" 
d="M101 373h116q13 0 13 -13q0 -12 -13 -12h-116v-335q0 -13 -12 -13q-13 0 -13 13v579q0 5 4 9l122 115q4 4 9 4t9 -4l122 -115q4 -4 4 -9v-117q0 -13 -12 -13q-13 0 -13 13v111l-110 104l-110 -104v-213z" />
    <glyph glyph-name="g" unicode="g" 
d="M345 -82q0 -5 -4 -9l-122 -116q-3 -3 -9 -3t-9 3l-122 116q-9 9 -1 18q9 9 18 0l114 -107l110 103v175l-101 -95q-3 -3 -9 -3q-5 0 -9 3l-122 116q-4 4 -4 9v224q0 6 4 10l122 115q4 4 9 4t9 -4l122 -115q4 -4 4 -10v-434zM210 451l-110 -104v-214l110 -103l110 103v214z
" />
    <glyph glyph-name="h" unicode="h" 
d="M100 347v-334q0 -13 -12 -13q-13 0 -13 13v694q0 13 13 13q12 0 12 -13v-325l101 95q4 4 9 4t9 -4l122 -115q4 -4 4 -10v-339q0 -13 -12 -13q-13 0 -13 13v334l-110 104z" />
    <glyph glyph-name="i" unicode="i" horiz-adv-x="190" 
d="M95 0q-13 0 -13 13v453q0 13 13 13t13 -13v-453q0 -13 -13 -13z" />
    <glyph glyph-name="j" unicode="j" horiz-adv-x="355" 
d="M255 -77v545q0 12 13 12q12 0 12 -12v-550q0 -6 -4 -9l-122 -116q-3 -3 -9 -3t-9 3l-122 116q-9 9 -1 18q9 9 18 0l114 -107z" />
    <glyph glyph-name="k" unicode="k" horiz-adv-x="431" 
d="M292 306l54 -52q4 -4 4 -9v-232q0 -13 -12 -13q-13 0 -13 13v227l-52 48l-168 -157v-118q0 -13 -12 -13q-13 0 -13 13v579q0 5 4 9l122 115q9 9 18 0t0 -18l-119 -111v-421l224 210q9 9 18 -1q9 -9 -1 -18z" />
    <glyph glyph-name="l" unicode="l" horiz-adv-x="189" 
d="M95 0q-13 0 -13 13v694q0 13 13 13q12 0 12 -13v-694q0 -13 -12 -13z" />
    <glyph glyph-name="m" unicode="m" horiz-adv-x="665" 
d="M210 451l-110 -104v-335q0 -8 -9 -12h-6q-10 3 -10 12v456q0 12 13 12q12 0 12 -12v-86l101 95q4 4 9 4t9 -4l114 -107l113 107q4 4 9 4t9 -4l122 -115q4 -4 4 -10v-339q0 -13 -12 -13q-13 0 -13 13v334l-110 104l-110 -104v-334q0 -13 -12 -13q-13 0 -13 13v334z" />
    <glyph glyph-name="n" unicode="n" 
d="M210 451l-110 -104v-335q0 -8 -9 -12h-6q-10 3 -10 12v456q0 12 13 12q12 0 12 -12v-86l101 95q4 4 9 4t9 -4l122 -115q4 -4 4 -10v-339q0 -13 -12 -13q-13 0 -13 13v334z" />
    <glyph glyph-name="o" unicode="o" 
d="M345 128q0 -5 -4 -9l-122 -116q-3 -3 -9 -3t-9 3l-122 116q-4 4 -4 9v224q0 6 4 10l122 115q4 4 9 4t9 -4l122 -115q4 -4 4 -10v-224zM210 451l-110 -104v-214l110 -103l110 103v214z" />
    <glyph glyph-name="p" unicode="p" 
d="M75 352q0 6 4 10l122 115q4 4 9 4t9 -4l122 -115q4 -4 4 -10v-224q0 -2 -0.5 -4t-3.5 -5l-122 -116q-3 -3 -9 -3t-9 3l-101 95v-295q0 -13 -12 -13q-13 0 -13 13v549zM210 30l110 103v214l-110 104l-110 -104v-214z" />
    <glyph glyph-name="q" unicode="q" 
d="M345 -197q0 -13 -12 -13q-13 0 -13 13v295l-101 -95q-3 -3 -9 -3q-5 0 -9 3l-122 116q-4 4 -4 9v224q0 6 4 10l122 115q4 4 9 4t9 -4l122 -115q4 -4 4 -10v-549zM320 133v214l-110 104l-110 -104v-214l110 -103z" />
    <glyph glyph-name="r" unicode="r" horiz-adv-x="381" 
d="M83 0q-13 0 -13 13v339q0 6 4 10l122 115q4 4 9 4t9 -4l122 -115q10 -9 1 -18q-4 -4 -9 -4.5t-9 3.5l-114 108l-110 -104v-334q0 -13 -12 -13z" />
    <glyph glyph-name="s" unicode="s" horiz-adv-x="389" 
d="M90 353l234 -215q9 -9 0 -19l-122 -116q-3 -3 -9 -3t-9 3l-122 116q-9 9 -1 18q9 9 18 0l114 -107l104 98l-235 215q-3 3 -3.5 5.5t-0.5 5.5q0 4 4 8l122 115q4 4 9 4t9 -4l122 -115q10 -9 1 -18q-4 -4 -9 -4.5t-9 3.5l-114 108z" />
    <glyph glyph-name="t" unicode="t" horiz-adv-x="368" 
d="M97 133l110 -103l114 107q9 9 18 0t-1 -18l-122 -116q-3 -3 -9 -3t-9 3l-122 116q-4 4 -4 9v579q0 13 13 13q12 0 12 -13v-335h116q13 0 13 -12q0 -13 -13 -13h-116v-214z" />
    <glyph glyph-name="u" unicode="u" 
d="M210 30l110 103v335q0 10 10 12h6q9 -2 9 -12v-455q0 -13 -12 -13q-13 0 -13 13v85l-101 -95q-3 -3 -9 -3t-9 3l-122 116q-4 4 -4 9v340q0 12 13 12q12 0 12 -12v-335z" />
    <glyph glyph-name="v" unicode="v" 
d="M320 133v335q0 12 13 12q12 0 12 -12v-340q0 -5 -4 -9l-122 -116q-3 -3 -9 -3t-9 3l-122 116q-4 4 -4 9v340q0 12 13 12q12 0 12 -12v-335l110 -103z" />
    <glyph glyph-name="w" unicode="w" horiz-adv-x="665" 
d="M320 133v335q0 12 13 12q12 0 12 -12v-335l110 -103l110 103v335q0 12 13 12q12 0 12 -12v-340q0 -5 -4 -9l-122 -116q-3 -3 -9 -3t-9 3l-113 107l-114 -107q-3 -3 -9 -3q-5 0 -9 3l-122 116q-4 4 -4 9v340q0 12 13 12q12 0 12 -12v-335l110 -103z" />
    <glyph glyph-name="x" unicode="x" horiz-adv-x="430" 
d="M215 258l110 103v107q0 12 13 12q12 0 12 -12v-112q0 -6 -4 -10l-112 -106l112 -106q4 -4 4 -9v-112q0 -13 -12 -13q-13 0 -13 13v106l-110 104l-110 -104v-106q0 -13 -12 -13q-13 0 -13 13v112q0 5 4 9l113 106l-113 106q-4 4 -4 9v113q0 12 13 12q12 0 12 -12v-107z
" />
    <glyph glyph-name="y" unicode="y" 
d="M320 133v335q0 12 13 12q12 0 12 -12v-550q0 -5 -4 -9l-122 -116q-3 -3 -9 -3t-9 3l-122 116q-9 9 -1 18q9 9 18 0l114 -107l110 103v175l-101 -95q-3 -3 -9 -3t-9 3l-122 116q-4 4 -4 9v340q0 12 13 12q12 0 12 -12v-335l110 -103z" />
    <glyph glyph-name="z" unicode="z" horiz-adv-x="389" 
d="M194 451l-114 -108q-4 -4 -9 -3.5t-9 4.5q-9 9 1 18l122 115q4 4 9 4t9 -4l122 -115q4 -4 4 -8q0 -3 -0.5 -5.5t-3.5 -5.5l-235 -215l104 -98l114 107q9 9 18 0q8 -9 -1 -18l-122 -116q-3 -3 -9 -3t-9 3l-122 116q-9 10 0 19l234 215z" />
    <glyph glyph-name="braceleft" unicode="{" horiz-adv-x="560" 
d="M106 364l130 -123q4 -4 4 -7.5v-7.5v-159l115 -108h118q12 0 12 -12q0 -13 -12 -13h-123q-6 0 -9 3l-122 116q-4 4 -4 9v164l-136 129q-4 4 -4 9t4 9l136 129v164q0 5 4 9l122 116q3 3 10 3h122q12 0 12 -13t-12 -13h-118l-115 -107v-159v-8t-4 -7z" />
    <glyph glyph-name="bar" unicode="|" horiz-adv-x="176" 
d="M88 -210q-13 0 -13 13v1044q0 13 13 13t13 -13v-1044q0 -13 -13 -13z" />
    <glyph glyph-name="braceright" unicode="}" horiz-adv-x="560" 
d="M324 487q-4 4 -4 7v8v159l-115 107h-118q-12 0 -12 13t12 13h122q7 0 10 -3l122 -116q4 -4 4 -9v-164l136 -129q4 -4 4 -9t-4 -9l-136 -129v-164q0 -5 -4 -9l-122 -116q-3 -3 -9 -3h-123q-12 0 -12 13q0 12 12 12h118l115 108v159v7.5t4 7.5l130 123z" />
    <glyph glyph-name="asciitilde" unicode="~" horiz-adv-x="408" 
d="M166 409q5 0 9 -4l68 -64l68 64q4 4 9 4t9 -4t4 -9t-4 -9l-77 -72q-4 -4 -9 -4q-4 0 -8 4l-69 64l-69 -64q-4 -4 -9 -4t-9 3.5t-4 8.5t5 10l76 72q4 4 10 4z" />
    <glyph glyph-name="uni00A0" unicode="&#xa0;" horiz-adv-x="400" 
 />
    <glyph glyph-name="exclamdown" unicode="&#xa1;" horiz-adv-x="270" 
d="M75 677q0 9 6 13l47 27q7 3 14 0l48 -27q4 -2 4.5 -5.5t0.5 -7.5v-56q0 -5 -0.5 -8t-4.5 -5l-48 -28q-8 -4 -14 0l-47 28q-6 4 -6 13v56zM135 494q-13 0 -13 -12v-470q0 -13 13 -13t13 13v470q0 12 -13 12zM96 631q0 -5 4 -8l31 -18q5 -3 9 0l30 18q4 3 4 8v36q0 5 -4 8
l-30 18q-5 3 -9 0l-31 -18q-4 -3 -4 -8v-36z" />
    <glyph glyph-name="cent" unicode="&#xa2;" horiz-adv-x="421" 
d="M223 42l101 95q9 9 18 0t-1 -18l-118 -112v-134q0 -13 -13 -13t-13 13v134l-118 112q-4 4 -4 9v224q0 6 4 10l118 112v134q0 12 13 12t13 -12v-134l118 -112q10 -9 1 -18q-4 -4 -9 -4.5t-9 3.5l-101 95v-396zM197 438l-97 -91v-214l97 -91v396z" />
    <glyph glyph-name="sterling" unicode="&#xa3;" horiz-adv-x="476" 
d="M75 360q0 13 13 13h42v219q0 5 4 9l122 115q4 4 9 4t9 -4l122 -115q10 -9 1 -18t-18 0l-114 107l-110 -104v-213h116q13 0 13 -13t-13 -13h-116v-322h233q12 0 12 -12q0 -13 -12 -13h-246q-10 0 -12 10v337h-42q-13 0 -13 13z" />
    <glyph glyph-name="yen" unicode="&#xa5;" horiz-adv-x="410" 
d="M218 278v-265q0 -13 -13 -13t-13 13v265h-57q-13 0 -13 12q0 13 13 13h57v26h-57q-13 0 -13 12q0 13 13 13h57l-118 112q-4 4 -4 10v231q0 13 13 13q12 0 12 -13v-226l110 -104l110 104v226q0 13 13 13q12 0 12 -13v-231q0 -6 -4 -10l-118 -112h58q12 0 12 -13
q0 -12 -12 -12h-58v-26h58q12 0 12 -13q0 -12 -12 -12h-58z" />
    <glyph glyph-name="brokenbar" unicode="&#xa6;" horiz-adv-x="175" 
d="M88 398q-13 0 -13 13v436q0 13 13 13q12 0 12 -13v-436q0 -13 -12 -13zM88 -140q-13 0 -13 13v436q0 13 13 13q12 0 12 -13v-436q0 -13 -12 -13z" />
    <glyph glyph-name="section" unicode="&#xa7;" 
d="M100 586v-105l241 -227q4 -4 4 -9v-117q0 -5 -4 -9l-122 -116q-3 -3 -9 -3t-9 3l-122 116q-4 4 -4 9v117q0 13 13 13q12 0 12 -13v-112l110 -103l109 102l-240 226q-4 4 -4 9v225q0 5 4 9l122 115q4 4 9 4q6 0 9 -4l122 -115q4 -4 4 -9v-117q0 -13 -12 -13q-13 0 -13 13
v111l-110 104zM100 372l220 -206v74l-220 206v-74z" />
    <glyph glyph-name="dieresis" unicode="&#xa8;" horiz-adv-x="345" 
d="M135 840v-30q0 -4 -3 -5l-24 -14q-4 -2 -7 0l-24 14q-2 1 -2 5v30q0 4 2 5l24 14q3 2 7 0l24 -14q3 -2 3 -5zM270 840v-30q0 -4 -3 -5l-24 -14q-4 -2 -7 0l-24 14q-2 1 -2 5v30q0 4 2 5l24 14q3 2 7 0l24 -14q3 -2 3 -5z" />
    <glyph glyph-name="ordfeminine" unicode="&#xaa;" horiz-adv-x="274" 
d="M155 707l-48 -45q-2 -2 -4 -2t-4 2q-3 4 1 8l51 48q2 2 4 2t3 -2l52 -48q1 -2 1 -4v-94q0 -2 -1 -4l-52 -49q-1 -1 -3 -1q-3 0 -4 1l-51 49q-2 2 -2 4v49q0 2 2 3l51 49q2 2 4 2t3 -2l43 -40v30zM109 619v-45l46 -43l46 43v45l-46 43z" />
    <glyph glyph-name="guillemotleft" unicode="&#xab;" horiz-adv-x="203" 
d="M136 518q-3 0 -3 3v187l-28 -27q-3 -2 -5 0q-3 3 0 5l34 33q1 1 3.5 0.5t2.5 -3.5v-195q0 -3 -4 -3z" />
    <glyph glyph-name="logicalnot" unicode="&#xac;" horiz-adv-x="421" 
d="M345 237q0 -12 -12 -12q-13 0 -13 12v110h-232q-13 0 -13 13t13 13h244q6 0 10 -4t3 -9v-123z" />
    <glyph glyph-name="uni00AD" unicode="&#xad;" horiz-adv-x="380" 
d="M75 360q0 13 13 13h205q12 0 12 -13t-12 -13h-205q-13 0 -13 13z" />
    <glyph glyph-name="degree" unicode="&#xb0;" horiz-adv-x="270" 
d="M75 621v56q0 9 6 13l47 28q7 4 14 0l48 -28q4 -2 4.5 -5t0.5 -8v-56q0 -4 -0.5 -7.5t-4.5 -5.5l-48 -27q-7 -4 -14 0l-47 27q-6 4 -6 13zM96 631q0 -5 4 -8l31 -18q4 -3 9 0l30 18q4 3 4 8v36q0 5 -4 8l-30 18q-4 3 -9 0l-31 -18q-4 -3 -4 -8v-36z" />
    <glyph glyph-name="plusminus" unicode="&#xb1;" 
d="M75 360q0 13 13 13h109v109q0 13 13 13t13 -13v-109h110q12 0 12 -13t-12 -13h-110v-110q0 -12 -13 -12t-13 12v110h-109q-13 0 -13 13zM75 186q0 13 13 13h245q12 0 12 -13q0 -12 -12 -12h-245q-13 0 -13 12z" />
    <glyph glyph-name="uni00B2" unicode="&#xb2;" horiz-adv-x="237" 
d="M136 712l-31 -29v-31q0 -4 -3 -4q-4 0 -4 4v33q0 1 1 2l34 33q2 1 3 1t3 -1l34 -33q1 -1 1 -2v-33q0 -2 -1 -3l-68 -63v-61h66q3 0 3 -3q0 -4 -3 -4h-70q-2 0 -3 3v66q0 1 1 2l68 64v30z" />
    <glyph glyph-name="uni00B3" unicode="&#xb3;" horiz-adv-x="237" 
d="M136 711l-32 -30q-2 -2 -5 0q-2 3 1 5l34 32q1 2 2 2q2 0 3 -2l34 -32q1 -1 1 -3v-32q0 -1 -1 -3l-32 -30l32 -30q1 -1 1 -3v-31q0 -2 -1 -3l-34 -32q-1 -1 -3 -1q-1 0 -2 1l-34 32q-3 3 -1 5q3 3 5 0l32 -30l31 29v29l-33 31v0h-12q-4 0 -4 4q0 3 4 3h13l32 31v29z" />
    <glyph glyph-name="acute" unicode="&#xb4;" horiz-adv-x="224" 
d="M127 856q9 9 18 0t0 -18l-48 -45q-9 -9 -18 1q-4 4 -3.5 9t4.5 9z" />
    <glyph glyph-name="mu" unicode="&#xb5;" 
d="M210 30l110 103v335q0 10 10 12h6q9 -2 9 -12v-455q0 -13 -12 -13q-13 0 -13 13v85l-101 -95q-3 -3 -9 -3t-9 3l-122 116q-4 4 -4 9v340q0 12 13 12q12 0 12 -12v-335zM100 155v-46v-35v-163q0 -13 -13 -13q-12 0 -12 13v244h25z" />
    <glyph glyph-name="periodcentered" unicode="&#xb7;" horiz-adv-x="270" 
d="M75 211v56q0 9 6 13l47 28q7 4 14 0l48 -28q4 -2 4.5 -5t0.5 -8v-56q0 -4 -0.5 -7.5t-4.5 -5.5l-48 -27q-7 -4 -14 0l-47 27q-6 4 -6 13zM96 221q0 -5 4 -8l31 -18q4 -3 9 0l30 18q4 3 4 8v36q0 5 -4 8l-30 18q-4 3 -9 0l-31 -18q-4 -3 -4 -8v-36z" />
    <glyph glyph-name="cedilla" unicode="&#xb8;" horiz-adv-x="421" 
d="M210 30l19 -18l38 -36q4 -4 4 -9v-50q0 -6 -4 -10l-46 -44q-5 -3 -9 -3q-7 0 -10 3l-46 44q-4 4 -4 10v37q0 13 12 13q13 0 13 -13v-31l35 -32l34 32v38l-46 52q-12 19 10 17z" />
    <glyph glyph-name="uni00B9" unicode="&#xb9;" 
d="M75 620v59q0 7 6 12l47 27q6 4 14 0l48 -27q5 -3 5 -12v-59q0 -9 -5 -11l-46 -27v-25q0 -9 -9 -9q-8 0 -8 9v25l-46 27q-6 4 -6 11zM96 632q0 -5 4 -8l31 -18q4 -3 9 0l30 18q4 3 4 8v36q0 5 -4 8l-30 18q-4 3 -9 0l-31 -18q-4 -3 -4 -8v-36zM225 620v59q0 7 6 12l47 27
q6 4 14 0l48 -27q5 -3 5 -12v-59q0 -9 -5 -11l-46 -27v-25q0 -9 -9 -9q-8 0 -8 9v25l-46 27q-6 4 -6 11zM246 632q0 -5 4 -8l31 -18q4 -3 9 0l30 18q4 3 4 8v36q0 5 -4 8l-30 18q-4 3 -9 0l-31 -18q-4 -3 -4 -8v-36z" />
    <glyph glyph-name="ordmasculine" unicode="&#xba;" horiz-adv-x="274" 
d="M211 572q0 -2 -1 -4l-51 -49q-2 -1 -4 -1q-3 0 -4 1l-51 49q-2 2 -2 4v94q0 2 2 4l51 48q2 2 4 2t4 -2l51 -48q1 -2 1 -4v-94zM155 707l-46 -43v-90l46 -43l46 43v90z" />
    <glyph glyph-name="guillemotright" unicode="&#xbb;" 
d="M75 620v59q0 7 6 12l47 27q6 4 14 0l48 -27q5 -3 5 -12v-59q0 -9 -5 -11l-46 -27v-25q0 -9 -9 -9q-8 0 -8 9v25l-46 27q-6 4 -6 11zM96 632q0 -5 4 -8l31 -18q4 -3 9 0l30 18q4 3 4 8v36q0 5 -4 8l-30 18q-4 3 -9 0l-31 -18q-4 -3 -4 -8v-36zM225 620v59q0 7 6 12l47 27
q6 4 14 0l48 -27q5 -3 5 -12v-59q0 -9 -5 -11l-46 -27v-25q0 -9 -9 -9q-8 0 -8 9v25l-46 27q-6 4 -6 11zM246 632q0 -5 4 -8l31 -18q4 -3 9 0l30 18q4 3 4 8v36q0 5 -4 8l-30 18q-4 3 -9 0l-31 -18q-4 -3 -4 -8v-36z" />
    <glyph glyph-name="questiondown" unicode="&#xbf;" 
d="M209 494q-12 0 -12 -12v-118l-118 -111q-4 -4 -4 -9v-117q0 -5 4 -9l122 -115q3 -4 9 -4q5 0 9 4l122 115q9 9 1 18q-9 9 -18 0l-114 -107l-110 104v105l118 111q4 4 4 9v124q0 12 -13 12zM270 621q0 -9 -6 -13l-47 -28q-6 -4 -14 0l-48 28q-4 2 -4.5 5t-0.5 8v56
q0 4 0.5 7.5t4.5 5.5l48 27q7 3 14 0l47 -27q6 -4 6 -13v-56zM249 667q0 5 -4 8l-31 18q-5 3 -9 0l-30 -18q-4 -3 -4 -8v-36q0 -5 4 -8l30 -18q4 -3 9 0l31 18q4 3 4 8v36z" />
    <glyph glyph-name="Agrave" unicode="&#xc0;" 
d="M242 812q4 -4 4.5 -9t-3.5 -9q-9 -10 -18 -1l-48 45q-9 9 0 18t18 0zM100 131v-118q0 -13 -12 -13q-13 0 -13 13v579q0 5 4 9l122 115q4 4 9 4t9 -4l122 -115q4 -4 4 -9v-579q0 -13 -12 -13q-13 0 -13 13v325zM210 690l-110 -104v-420l220 207v213z" />
    <glyph glyph-name="Aacute" unicode="&#xc1;" 
d="M225 856q9 9 18 0t0 -18l-48 -45q-9 -9 -18 1q-4 4 -3.5 9t4.5 9zM100 131v-118q0 -13 -12 -13q-13 0 -13 13v579q0 5 4 9l122 115q4 4 9 4t9 -4l122 -115q4 -4 4 -9v-579q0 -13 -12 -13q-13 0 -13 13v325zM210 690l-110 -104v-420l220 207v213z" />
    <glyph glyph-name="Acircumflex" unicode="&#xc2;" 
d="M201 856q4 4 9 4t9 -4l48 -44q9 -9 0 -18q-3 -5 -8.5 -5t-9.5 4l-39 37l-39 -37q-9 -9 -18 1q-9 9 1 18zM100 131v-118q0 -13 -12 -13q-13 0 -13 13v579q0 5 4 9l122 115q4 4 9 4t9 -4l122 -115q4 -4 4 -9v-579q0 -13 -12 -13q-13 0 -13 13v325zM210 690l-110 -104v-420
l220 207v213z" />
    <glyph glyph-name="Atilde" unicode="&#xc3;" 
d="M177 856q4 4 9 4t9 -4l39 -36l39 36q9 9 18 0t0 -18l-48 -45q-3 -3 -9 -3q-5 0 -8 3l-40 37l-39 -37q-9 -9 -18 1q-4 4 -3.5 9t4.5 9zM100 131v-118q0 -13 -12 -13q-13 0 -13 13v579q0 5 4 9l122 115q4 4 9 4t9 -4l122 -115q4 -4 4 -9v-579q0 -13 -12 -13q-13 0 -13 13
v325zM210 690l-110 -104v-420l220 207v213z" />
    <glyph glyph-name="Adieresis" unicode="&#xc4;" 
d="M173 840v-30q0 -4 -3 -5l-24 -14q-4 -2 -7 0l-24 14q-2 1 -2 5v30q0 4 2 5l24 14q3 2 7 0l24 -14q3 -2 3 -5zM308 840v-30q0 -4 -3 -5l-24 -14q-4 -2 -7 0l-24 14q-2 1 -2 5v30q0 4 2 5l24 14q3 2 7 0l24 -14q3 -2 3 -5zM100 131v-118q0 -13 -12 -13q-13 0 -13 13v579
q0 5 4 9l122 115q4 4 9 4t9 -4l122 -115q4 -4 4 -9v-579q0 -13 -12 -13q-13 0 -13 13v325zM210 690l-110 -104v-420l220 207v213z" />
    <glyph glyph-name="Aring" unicode="&#xc5;" 
d="M150 760v59q0 7 6 12l47 27q8 4 14 0l48 -27q5 -3 5 -12v-59q0 -5 -1 -7t-4 -4l-46 -27v-6l122 -115q4 -4 4 -9v-579q0 -13 -12 -13q-13 0 -13 13v325l-220 -207v-118q0 -13 -12 -13q-13 0 -13 13v579q0 5 4 9l123 115v6l-46 27q-6 4 -6 11zM210 690l-110 -104v-420
l220 207v213zM172 772q0 -6 3 -8l31 -18q4 -3 9 0l30 18q4 3 4 8v36q0 5 -4 8l-30 18q-4 3 -9 0l-31 -18q-3 -2 -3 -8v-36z" />
    <glyph glyph-name="AE" unicode="&#xc6;" horiz-adv-x="666" 
d="M464 491q9 -9 0 -18l-119 -111v-229l110 -103l114 107q9 9 18 0t-1 -18l-122 -116q-3 -3 -9 -3t-9 3l-101 95v-85q0 -13 -12 -13q-13 0 -13 13v325l-220 -207v-118q0 -13 -12 -13q-13 0 -13 13v579q0 5 4 9l122 115q4 4 9 4t9 -4l114 -107l113 107q4 4 9 4t9 -4l122 -115
q10 -9 1 -18t-18 0l-114 107l-110 -104v-189l101 95q4 4 9 3.5t9 -4.5zM210 690l-110 -104v-420l220 207v213z" />
    <glyph glyph-name="Ccedilla" unicode="&#xc7;" horiz-adv-x="421" 
d="M210 690l-110 -104v-453l110 -103l114 107q9 9 18 0t-1 -18l-112 -107l38 -36q4 -4 4 -9v-50q0 -6 -4 -10l-46 -44q-5 -3 -9 -3q-7 0 -10 3l-46 44q-4 4 -4 10v37q0 13 12 13q13 0 13 -13v-31l35 -32l34 32v38l-167 158q-4 4 -4 10v463q0 5 4 9l122 115q4 4 9 4t9 -4
l122 -115q10 -9 1 -18t-18 0z" />
    <glyph glyph-name="Egrave" unicode="&#xc8;" horiz-adv-x="421" 
d="M242 812q4 -4 4.5 -9t-3.5 -9q-9 -10 -18 -1l-48 45q-9 9 0 18t18 0zM210 690l-110 -104v-213h116q13 0 13 -13q0 -12 -13 -12h-116v-215l110 -103l114 107q9 9 18 0t-1 -18l-122 -116q-3 -3 -9 -3t-9 3l-122 116q-4 4 -4 10v463q0 5 4 9l122 115q4 4 9 4t9 -4l122 -115
q10 -9 1 -18t-18 0z" />
    <glyph glyph-name="Eacute" unicode="&#xc9;" horiz-adv-x="421" 
d="M225 856q9 9 18 0t0 -18l-48 -45q-9 -9 -18 1q-4 4 -3.5 9t4.5 9zM210 690l-110 -104v-213h116q13 0 13 -13q0 -12 -13 -12h-116v-215l110 -103l114 107q9 9 18 0t-1 -18l-122 -116q-3 -3 -9 -3t-9 3l-122 116q-4 4 -4 10v463q0 5 4 9l122 115q4 4 9 4t9 -4l122 -115
q10 -9 1 -18t-18 0z" />
    <glyph glyph-name="Ecircumflex" unicode="&#xca;" horiz-adv-x="421" 
d="M201 856q4 4 9 4t9 -4l48 -44q9 -9 0 -18q-3 -5 -8.5 -5t-9.5 4l-39 37l-39 -37q-9 -9 -18 1q-9 9 1 18zM210 690l-110 -104v-213h116q13 0 13 -13q0 -12 -13 -12h-116v-215l110 -103l114 107q9 9 18 0t-1 -18l-122 -116q-3 -3 -9 -3t-9 3l-122 116q-4 4 -4 10v463
q0 5 4 9l122 115q4 4 9 4t9 -4l122 -115q10 -9 1 -18t-18 0z" />
    <glyph glyph-name="Edieresis" unicode="&#xcb;" horiz-adv-x="421" 
d="M173 840v-30q0 -4 -3 -5l-24 -14q-4 -2 -7 0l-24 14q-2 1 -2 5v30q0 4 2 5l24 14q3 2 7 0l24 -14q3 -2 3 -5zM308 840v-30q0 -4 -3 -5l-24 -14q-4 -2 -7 0l-24 14q-2 1 -2 5v30q0 4 2 5l24 14q3 2 7 0l24 -14q3 -2 3 -5zM210 690l-110 -104v-213h116q13 0 13 -13
q0 -12 -13 -12h-116v-215l110 -103l114 107q9 9 18 0t-1 -18l-122 -116q-3 -3 -9 -3t-9 3l-122 116q-4 4 -4 10v463q0 5 4 9l122 115q4 4 9 4t9 -4l122 -115q10 -9 1 -18t-18 0z" />
    <glyph glyph-name="Igrave" unicode="&#xcc;" horiz-adv-x="224" 
d="M112 0q-13 0 -13 13v694q0 13 13 13t13 -13v-694q0 -13 -13 -13zM144 812q4 -4 4.5 -9t-3.5 -9q-9 -10 -18 -1l-48 45q-9 9 0 18t18 0z" />
    <glyph glyph-name="Iacute" unicode="&#xcd;" horiz-adv-x="224" 
d="M127 856q9 9 18 0t0 -18l-48 -45q-9 -9 -18 1q-4 4 -3.5 9t4.5 9zM112 0q-13 0 -13 13v694q0 13 13 13t13 -13v-694q0 -13 -13 -13z" />
    <glyph glyph-name="Icircumflex" unicode="&#xce;" horiz-adv-x="272" 
d="M127 856q4 4 9 4t9 -4l48 -44q9 -9 0 -18q-3 -5 -8.5 -5t-9.5 4l-39 37l-39 -37q-9 -9 -18 1q-9 9 1 18zM136 0q-13 0 -13 13v694q0 13 13 13t13 -13v-694q0 -13 -13 -13z" />
    <glyph glyph-name="Idieresis" unicode="&#xcf;" horiz-adv-x="345" 
d="M135 840v-30q0 -4 -3 -5l-24 -14q-4 -2 -7 0l-24 14q-2 1 -2 5v30q0 4 2 5l24 14q3 2 7 0l24 -14q3 -2 3 -5zM270 840v-30q0 -4 -3 -5l-24 -14q-4 -2 -7 0l-24 14q-2 1 -2 5v30q0 4 2 5l24 14q3 2 7 0l24 -14q3 -2 3 -5zM172 0q13 0 13 13v694q0 13 -13 13t-13 -13v-694
q0 -13 13 -13z" />
    <glyph glyph-name="Eth" unicode="&#xd0;" horiz-adv-x="475" 
d="M265 720q6 0 9 -3l122 -116q4 -4 4 -8v-466q0 -4 -4 -8l-122 -116q-3 -3 -9 -3h-124q-11 0 -11 13v334h-42q-13 0 -13 13t13 13h42v334q0 13 11 13h124zM155 30h110l110 103v454l-110 103h-110v-317h43q12 0 12 -13t-12 -13h-43v-317z" />
    <glyph glyph-name="Ntilde" unicode="&#xd1;" 
d="M177 856q4 4 9 4t9 -4l39 -36l39 36q9 9 18 0t0 -18l-48 -45q-3 -3 -9 -3q-5 0 -8 3l-40 37l-39 -37q-9 -9 -18 1q-4 4 -3.5 9t4.5 9zM210 690l-110 -103v-574q0 -13 -12 -13q-13 0 -13 13v579q0 5 4 9l122 116q3 3 9 3t9 -3l122 -116q4 -4 4 -9v-579q0 -13 -12 -13
q-13 0 -13 13v574z" />
    <glyph glyph-name="Ograve" unicode="&#xd2;" 
d="M242 812q4 -4 4.5 -9t-3.5 -9q-9 -10 -18 -1l-48 45q-9 9 0 18t18 0zM210 690l-110 -104v-453l110 -103l110 103v453zM75 592q0 5 4 9l122 115q4 4 9 4t9 -4l122 -115q4 -4 4 -9v-464q0 -5 -4 -9l-122 -116q-3 -3 -9 -3t-9 3l-122 116q-4 4 -4 9v464z" />
    <glyph glyph-name="Oacute" unicode="&#xd3;" 
d="M225 856q9 9 18 0t0 -18l-48 -45q-9 -9 -18 1q-4 4 -3.5 9t4.5 9zM210 690l-110 -104v-453l110 -103l110 103v453zM75 592q0 5 4 9l122 115q4 4 9 4t9 -4l122 -115q4 -4 4 -9v-464q0 -5 -4 -9l-122 -116q-3 -3 -9 -3t-9 3l-122 116q-4 4 -4 9v464z" />
    <glyph glyph-name="Ocircumflex" unicode="&#xd4;" 
d="M201 856q4 4 9 4t9 -4l48 -44q9 -9 0 -18q-3 -5 -8.5 -5t-9.5 4l-39 37l-39 -37q-9 -9 -18 1q-9 9 1 18zM210 690l-110 -104v-453l110 -103l110 103v453zM75 592q0 5 4 9l122 115q4 4 9 4t9 -4l122 -115q4 -4 4 -9v-464q0 -5 -4 -9l-122 -116q-3 -3 -9 -3t-9 3l-122 116
q-4 4 -4 9v464z" />
    <glyph glyph-name="Otilde" unicode="&#xd5;" 
d="M177 856q4 4 9 4t9 -4l39 -36l39 36q9 9 18 0t0 -18l-48 -45q-3 -3 -9 -3q-5 0 -8 3l-40 37l-39 -37q-9 -9 -18 1q-4 4 -3.5 9t4.5 9zM210 690l-110 -104v-453l110 -103l110 103v453zM75 592q0 5 4 9l122 115q4 4 9 4t9 -4l122 -115q4 -4 4 -9v-464q0 -5 -4 -9l-122 -116
q-3 -3 -9 -3t-9 3l-122 116q-4 4 -4 9v464z" />
    <glyph glyph-name="Odieresis" unicode="&#xd6;" 
d="M173 840v-30q0 -4 -3 -5l-24 -14q-4 -2 -7 0l-24 14q-2 1 -2 5v30q0 4 2 5l24 14q3 2 7 0l24 -14q3 -2 3 -5zM308 840v-30q0 -4 -3 -5l-24 -14q-4 -2 -7 0l-24 14q-2 1 -2 5v30q0 4 2 5l24 14q3 2 7 0l24 -14q3 -2 3 -5zM210 690l-110 -104v-453l110 -103l110 103v453z
M75 592q0 5 4 9l122 115q4 4 9 4t9 -4l122 -115q4 -4 4 -9v-464q0 -5 -4 -9l-122 -116q-3 -3 -9 -3t-9 3l-122 116q-4 4 -4 9v464z" />
    <glyph glyph-name="multiply" unicode="&#xd7;" horiz-adv-x="349" 
d="M79 264q-9 9 0 18l77 78l-77 78q-9 9 0 18t18 0l77 -78l78 78q9 9 18 0t0 -18l-78 -78l78 -78q9 -9 0 -18t-18 0l-78 78l-77 -78q-9 -9 -18 0z" />
    <glyph glyph-name="Oslash" unicode="&#xd8;" 
d="M345 128q0 -5 -4 -9l-122 -116q-3 -3 -9 -3t-9 3l-122 116q-4 4 -4 9v464q0 5 4 9l122 115q4 4 9 4t9 -4l122 -115q4 -4 4 -9v-464zM210 690l-110 -104v-311l220 206v105zM100 240v-107l110 -103l110 103v313z" />
    <glyph glyph-name="Ugrave" unicode="&#xd9;" 
d="M242 812q4 -4 4.5 -9t-3.5 -9q-9 -10 -18 -1l-48 45q-9 9 0 18t18 0zM100 133l110 -103h110v677q0 13 13 13q12 0 12 -13v-694q0 -13 -12 -13h-123q-6 0 -9 3l-122 116q-4 4 -4 8v580q0 13 13 13q12 0 12 -13v-574z" />
    <glyph glyph-name="Uacute" unicode="&#xda;" 
d="M225 856q9 9 18 0t0 -18l-48 -45q-9 -9 -18 1q-4 4 -3.5 9t4.5 9zM100 133l110 -103h110v677q0 13 13 13q12 0 12 -13v-694q0 -13 -12 -13h-123q-6 0 -9 3l-122 116q-4 4 -4 8v580q0 13 13 13q12 0 12 -13v-574z" />
    <glyph glyph-name="Ucircumflex" unicode="&#xdb;" 
d="M201 856q4 4 9 4t9 -4l48 -44q9 -9 0 -18q-3 -5 -8.5 -5t-9.5 4l-39 37l-39 -37q-9 -9 -18 1q-9 9 1 18zM100 133l110 -103h110v677q0 13 13 13q12 0 12 -13v-694q0 -13 -12 -13h-123q-6 0 -9 3l-122 116q-4 4 -4 8v580q0 13 13 13q12 0 12 -13v-574z" />
    <glyph glyph-name="Udieresis" unicode="&#xdc;" 
d="M173 840v-30q0 -4 -3 -5l-24 -14q-4 -2 -7 0l-24 14q-2 1 -2 5v30q0 4 2 5l24 14q3 2 7 0l24 -14q3 -2 3 -5zM308 840v-30q0 -4 -3 -5l-24 -14q-4 -2 -7 0l-24 14q-2 1 -2 5v30q0 4 2 5l24 14q3 2 7 0l24 -14q3 -2 3 -5zM100 707q0 13 -12 13q-13 0 -13 -13v-580
q0 -4 4 -8l122 -116q3 -3 9 -3h123q12 0 12 13v694q0 13 -12 13q-13 0 -13 -13v-677h-110l-110 103v574z" />
    <glyph glyph-name="Yacute" unicode="&#xdd;" 
d="M225 856q9 9 18 0t0 -18l-48 -45q-9 -9 -18 1q-4 4 -3.5 9t4.5 9zM320 481v226q0 13 13 13q12 0 12 -13v-231q0 -6 -4 -10l-118 -112v-341q0 -13 -13 -13t-13 13v341l-118 112q-4 4 -4 10v231q0 13 13 13q12 0 12 -13v-226l110 -104z" />
    <glyph glyph-name="Thorn" unicode="&#xde;" horiz-adv-x="660" 
d="M320 13v205v489q0 13 13 13q12 0 12 -13v-206l101 95q4 4 9 4t9 -4l122 -115q4 -4 4 -9v-224q0 -6 -4 -10l-122 -115q-4 -4 -9 -4q-4 0 -9 4l-101 95v-205q-1 -13 -12 -13q-13 0 -13 13zM455 570l-110 -104v-213l110 -104l110 104v213zM320 253z" />
    <glyph glyph-name="agrave" unicode="&#xe0;" 
d="M210 451l-114 -108q-4 -4 -9 -3.5t-9 4.5q-8 9 1 18l122 115q4 4 9 4t9 -4l122 -115q4 -4 4 -10v-224q0 -5 -4 -9l-122 -116q-3 -3 -9 -3t-9 3l-122 116q-4 4 -4 9v117q0 5 4 9l122 116q4 4 9 4t9 -4l101 -95v72zM100 240v-107l110 -103l110 103v107l-110 103zM242 573
q4 -4 4.5 -9t-3.5 -9q-9 -10 -18 -1l-48 45q-9 9 0 18t18 0z" />
    <glyph glyph-name="aacute" unicode="&#xe1;" 
d="M225 617q9 9 18 0t0 -18l-48 -45q-9 -9 -18 1q-4 4 -3.5 9t4.5 9zM210 451l-114 -108q-4 -4 -9 -3.5t-9 4.5q-8 9 1 18l122 115q4 4 9 4t9 -4l122 -115q4 -4 4 -10v-224q0 -5 -4 -9l-122 -116q-3 -3 -9 -3t-9 3l-122 116q-4 4 -4 9v117q0 5 4 9l122 116q4 4 9 4t9 -4
l101 -95v72zM100 240v-107l110 -103l110 103v107l-110 103z" />
    <glyph glyph-name="acircumflex" unicode="&#xe2;" 
d="M210 451l-114 -108q-4 -4 -9 -3.5t-9 4.5q-8 9 1 18l122 115q4 4 9 4t9 -4l122 -115q4 -4 4 -10v-224q0 -5 -4 -9l-122 -116q-3 -3 -9 -3t-9 3l-122 116q-4 4 -4 9v117q0 5 4 9l122 116q4 4 9 4t9 -4l101 -95v72zM100 240v-107l110 -103l110 103v107l-110 103zM201 617
q4 4 9 4t9 -4l48 -44q9 -9 0 -18q-3 -5 -8.5 -5t-9.5 4l-39 37l-39 -37q-9 -9 -18 1q-9 9 1 18z" />
    <glyph glyph-name="atilde" unicode="&#xe3;" 
d="M210 451l-114 -108q-4 -4 -9 -3.5t-9 4.5q-8 9 1 18l122 115q4 4 9 4t9 -4l122 -115q4 -4 4 -10v-224q0 -5 -4 -9l-122 -116q-3 -3 -9 -3t-9 3l-122 116q-4 4 -4 9v117q0 5 4 9l122 116q4 4 9 4t9 -4l101 -95v72zM100 240v-107l110 -103l110 103v107l-110 103zM177 617
q4 4 9 4t9 -4l39 -36l39 36q9 9 18 0t0 -18l-48 -45q-3 -3 -9 -3q-5 0 -8 3l-40 37l-39 -37q-9 -9 -18 1q-4 4 -3.5 9t4.5 9z" />
    <glyph glyph-name="adieresis" unicode="&#xe4;" 
d="M210 451l-114 -108q-4 -4 -9 -3.5t-9 4.5q-8 9 1 18l122 115q4 4 9 4t9 -4l122 -115q4 -4 4 -10v-224q0 -5 -4 -9l-122 -116q-3 -3 -9 -3t-9 3l-122 116q-4 4 -4 9v117q0 5 4 9l122 116q4 4 9 4t9 -4l101 -95v72zM100 240v-107l110 -103l110 103v107l-110 103zM173 601
v-30q0 -4 -3 -5l-24 -14q-4 -2 -7 0l-24 14q-2 1 -2 5v30q0 4 2 5l24 14q3 2 7 0l24 -14q3 -2 3 -5zM308 601v-30q0 -4 -3 -5l-24 -14q-4 -2 -7 0l-24 14q-2 1 -2 5v30q0 4 2 5l24 14q3 2 7 0l24 -14q3 -2 3 -5z" />
    <glyph glyph-name="aring" unicode="&#xe5;" 
d="M96 343q-4 -4 -9 -3.5t-9 4.5q-8 9 1 18l122 114l1 1v5l-46 27q-6 4 -6 12v59q0 8 6 11l47 28q7 4 14 0l48 -28q5 -3 5 -11v-59q0 -8 -5 -12l-46 -26v-6l122 -115q4 -4 4 -10v-224q0 -5 -4 -9l-122 -116q-3 -3 -9 -3t-9 3l-122 116q-4 4 -4 9v117q0 5 4 9l122 116
q4 4 9 4t9 -4l101 -95v72l-110 103zM100 240v-107l110 -103l110 103v107l-110 103zM172 531q0 -6 3 -7l31 -18q5 -3 9 0l30 18q4 3 4 7v38q0 4 -4 7l-30 18q-5 2 -9 0l-31 -18q-3 -2 -3 -7v-38z" />
    <glyph glyph-name="ae" unicode="&#xe6;" horiz-adv-x="666" 
d="M210 451l-114 -108q-4 -4 -9 -3.5t-9 4.5q-8 9 1 18l122 115q4 4 9 4t9 -4l114 -107l113 107q4 4 9 4t9 -4l122 -115q4 -4 4 -10q0 -5 -4 -9l-231 -218l100 -95l114 107q9 9 18 0t-1 -18l-122 -116q-3 -3 -9 -3t-9 3l-113 107l-114 -107q-3 -3 -9 -3t-9 3l-122 116
q-4 4 -4 9v117q0 5 4 9l122 116q4 4 9 4t9 -4l101 -95v72zM100 240v-107l110 -103l110 103v107l-110 103zM345 347v-196l214 201l-104 99z" />
    <glyph glyph-name="ccedilla" unicode="&#xe7;" horiz-adv-x="421" 
d="M324 137q9 9 18 0t-1 -18l-112 -107l38 -36q4 -4 4 -9v-50q0 -6 -4 -10l-46 -44q-5 -3 -9 -3q-7 0 -10 3l-46 44q-4 4 -4 10v37q0 13 12 13q13 0 13 -13v-31l35 -32l34 32v38l-167 158q-4 4 -4 9v224q0 6 4 10l122 115q4 4 9 4t9 -4l122 -115q10 -9 1 -18q-4 -4 -9 -4.5
t-9 3.5l-114 108l-110 -104v-214l110 -103z" />
    <glyph glyph-name="egrave" unicode="&#xe8;" horiz-adv-x="421" 
d="M242 573q4 -4 4.5 -9t-3.5 -9q-9 -10 -18 -1l-48 45q-9 9 0 18t18 0zM110 125l100 -95l114 107q9 9 18 0t-1 -18l-122 -116q-3 -3 -9 -3t-9 3l-122 116q-4 4 -4 9v224q0 6 4 10l122 115q4 4 9 4t9 -4l122 -115q4 -4 4 -10q0 -5 -4 -9zM210 451l-110 -104v-196l214 201z
" />
    <glyph glyph-name="eacute" unicode="&#xe9;" horiz-adv-x="421" 
d="M225 617q9 9 18 0t0 -18l-48 -45q-9 -9 -18 1q-4 4 -3.5 9t4.5 9zM110 125l100 -95l114 107q9 9 18 0t-1 -18l-122 -116q-3 -3 -9 -3t-9 3l-122 116q-4 4 -4 9v224q0 6 4 10l122 115q4 4 9 4t9 -4l122 -115q4 -4 4 -10q0 -5 -4 -9zM210 451l-110 -104v-196l214 201z" />
    <glyph glyph-name="ecircumflex" unicode="&#xea;" horiz-adv-x="421" 
d="M201 617q4 4 9 4t9 -4l48 -44q9 -9 0 -18q-3 -5 -8.5 -5t-9.5 4l-39 37l-39 -37q-9 -9 -18 1q-9 9 1 18zM110 125l100 -95l114 107q9 9 18 0t-1 -18l-122 -116q-3 -3 -9 -3t-9 3l-122 116q-4 4 -4 9v224q0 6 4 10l122 115q4 4 9 4t9 -4l122 -115q4 -4 4 -10q0 -5 -4 -9z
M210 451l-110 -104v-196l214 201z" />
    <glyph glyph-name="edieresis" unicode="&#xeb;" horiz-adv-x="421" 
d="M173 601v-30q0 -4 -3 -5l-24 -14q-4 -2 -7 0l-24 14q-2 1 -2 5v30q0 4 2 5l24 14q3 2 7 0l24 -14q3 -2 3 -5zM308 601v-30q0 -4 -3 -5l-24 -14q-4 -2 -7 0l-24 14q-2 1 -2 5v30q0 4 2 5l24 14q3 2 7 0l24 -14q3 -2 3 -5zM110 125l100 -95l114 107q9 9 18 0t-1 -18
l-122 -116q-3 -3 -9 -3t-9 3l-122 116q-4 4 -4 9v224q0 6 4 10l122 115q4 4 9 4t9 -4l122 -115q4 -4 4 -10q0 -5 -4 -9zM210 451l-110 -104v-196l214 201z" />
    <glyph glyph-name="igrave" unicode="&#xec;" horiz-adv-x="224" 
d="M144 573q4 -4 4.5 -9t-3.5 -9q-9 -10 -18 -1l-48 45q-9 9 0 18t18 0zM112 0q-13 0 -13 13v453q0 13 13 13t13 -13v-453q0 -13 -13 -13z" />
    <glyph glyph-name="iacute" unicode="&#xed;" horiz-adv-x="224" 
d="M127 617q9 9 18 0t0 -18l-48 -45q-9 -9 -18 1q-4 4 -3.5 9t4.5 9zM112 0q-13 0 -13 13v453q0 13 13 13t13 -13v-453q0 -13 -13 -13z" />
    <glyph glyph-name="icircumflex" unicode="&#xee;" horiz-adv-x="272" 
d="M127 617q4 4 9 4t9 -4l48 -44q9 -9 0 -18q-3 -5 -8.5 -5t-9.5 4l-39 37l-39 -37q-9 -9 -18 1q-9 9 1 18zM135 0q-13 0 -13 13v453q0 13 13 13t13 -13v-453q0 -13 -13 -13z" />
    <glyph glyph-name="idieresis" unicode="&#xef;" horiz-adv-x="345" 
d="M98 601v-30q0 -4 -3 -5l-24 -14q-4 -2 -7 0l-24 14q-2 1 -2 5v30q0 4 2 5l24 14q3 2 7 0l24 -14q3 -2 3 -5zM233 601v-30q0 -4 -3 -5l-24 -14q-4 -2 -7 0l-24 14q-2 1 -2 5v30q0 4 2 5l24 14q3 2 7 0l24 -14q3 -2 3 -5zM135 0q13 0 13 13v453q0 13 -13 13t-13 -13v-453
q0 -13 13 -13z" />
    <glyph glyph-name="ntilde" unicode="&#xf1;" 
d="M177 617q4 4 9 4t9 -4l39 -36l39 36q9 9 18 0t0 -18l-48 -45q-3 -3 -9 -3q-5 0 -8 3l-40 37l-39 -37q-9 -9 -18 1q-4 4 -3.5 9t4.5 9zM210 451l-110 -104v-335q0 -8 -9 -12h-6q-10 3 -10 12v456q0 12 13 12q12 0 12 -12v-86l101 95q4 4 9 4t9 -4l122 -115q4 -4 4 -10
v-339q0 -13 -12 -13q-13 0 -13 13v334z" />
    <glyph glyph-name="ograve" unicode="&#xf2;" 
d="M242 573q4 -4 4.5 -9t-3.5 -9q-9 -10 -18 -1l-48 45q-9 9 0 18t18 0zM345 128q0 -5 -4 -9l-122 -116q-3 -3 -9 -3t-9 3l-122 116q-4 4 -4 9v224q0 6 4 10l122 115q4 4 9 4t9 -4l122 -115q4 -4 4 -10v-224zM210 451l-110 -104v-214l110 -103l110 103v214z" />
    <glyph glyph-name="oacute" unicode="&#xf3;" 
d="M225 617q9 9 18 0t0 -18l-48 -45q-9 -9 -18 1q-4 4 -3.5 9t4.5 9zM345 128q0 -5 -4 -9l-122 -116q-3 -3 -9 -3t-9 3l-122 116q-4 4 -4 9v224q0 6 4 10l122 115q4 4 9 4t9 -4l122 -115q4 -4 4 -10v-224zM210 451l-110 -104v-214l110 -103l110 103v214z" />
    <glyph glyph-name="ocircumflex" unicode="&#xf4;" 
d="M201 617q4 4 9 4t9 -4l48 -44q9 -9 0 -18q-3 -5 -8.5 -5t-9.5 4l-39 37l-39 -37q-9 -9 -18 1q-9 9 1 18zM345 128q0 -5 -4 -9l-122 -116q-3 -3 -9 -3t-9 3l-122 116q-4 4 -4 9v224q0 6 4 10l122 115q4 4 9 4t9 -4l122 -115q4 -4 4 -10v-224zM210 451l-110 -104v-214
l110 -103l110 103v214z" />
    <glyph glyph-name="otilde" unicode="&#xf5;" 
d="M177 617q4 4 9 4t9 -4l39 -36l39 36q9 9 18 0t0 -18l-48 -45q-3 -3 -9 -3q-5 0 -8 3l-40 37l-39 -37q-9 -9 -18 1q-4 4 -3.5 9t4.5 9zM345 128q0 -5 -4 -9l-122 -116q-3 -3 -9 -3t-9 3l-122 116q-4 4 -4 9v224q0 6 4 10l122 115q4 4 9 4t9 -4l122 -115q4 -4 4 -10v-224z
M210 451l-110 -104v-214l110 -103l110 103v214z" />
    <glyph glyph-name="odieresis" unicode="&#xf6;" 
d="M173 601v-30q0 -4 -3 -5l-24 -14q-4 -2 -7 0l-24 14q-2 1 -2 5v30q0 4 2 5l24 14q3 2 7 0l24 -14q3 -2 3 -5zM308 601v-30q0 -4 -3 -5l-24 -14q-4 -2 -7 0l-24 14q-2 1 -2 5v30q0 4 2 5l24 14q3 2 7 0l24 -14q3 -2 3 -5zM345 128q0 -5 -4 -9l-122 -116q-3 -3 -9 -3t-9 3
l-122 116q-4 4 -4 9v224q0 6 4 10l122 115q4 4 9 4t9 -4l122 -115q4 -4 4 -10v-224zM210 451l-110 -104v-214l110 -103l110 103v214z" />
    <glyph glyph-name="oslash" unicode="&#xf8;" 
d="M345 128q0 -5 -4 -9l-122 -116q-3 -3 -9 -3t-9 3l-122 116q-4 4 -4 9v224q0 6 4 10l122 115q4 4 9 4t9 -4l122 -115q4 -4 4 -10v-224zM210 451l-110 -104v-196l214 201zM110 125l100 -95l110 103v190z" />
    <glyph glyph-name="ugrave" unicode="&#xf9;" 
d="M242 573q4 -4 4.5 -9t-3.5 -9q-9 -10 -18 -1l-48 45q-9 9 0 18t18 0zM210 30l110 103v335q0 10 10 12h6q9 -2 9 -12v-455q0 -13 -12 -13q-13 0 -13 13v85l-101 -95q-3 -3 -9 -3t-9 3l-122 116q-4 4 -4 9v340q0 12 13 12q12 0 12 -12v-335z" />
    <glyph glyph-name="uacute" unicode="&#xfa;" 
d="M225 617q9 9 18 0t0 -18l-48 -45q-9 -9 -18 1q-4 4 -3.5 9t4.5 9zM210 30l110 103v335q0 10 10 12h6q9 -2 9 -12v-455q0 -13 -12 -13q-13 0 -13 13v85l-101 -95q-3 -3 -9 -3t-9 3l-122 116q-4 4 -4 9v340q0 12 13 12q12 0 12 -12v-335z" />
    <glyph glyph-name="ucircumflex" unicode="&#xfb;" 
d="M201 617q4 4 9 4t9 -4l48 -44q9 -9 0 -18q-3 -5 -8.5 -5t-9.5 4l-39 37l-39 -37q-9 -9 -18 1q-9 9 1 18zM210 30l110 103v335q0 10 10 12h6q9 -2 9 -12v-455q0 -13 -12 -13q-13 0 -13 13v85l-101 -95q-3 -3 -9 -3t-9 3l-122 116q-4 4 -4 9v340q0 12 13 12q12 0 12 -12
v-335z" />
    <glyph glyph-name="udieresis" unicode="&#xfc;" 
d="M173 601v-30q0 -4 -3 -5l-24 -14q-4 -2 -7 0l-24 14q-2 1 -2 5v30q0 4 2 5l24 14q3 2 7 0l24 -14q3 -2 3 -5zM308 601v-30q0 -4 -3 -5l-24 -14q-4 -2 -7 0l-24 14q-2 1 -2 5v30q0 4 2 5l24 14q3 2 7 0l24 -14q3 -2 3 -5zM210 30l110 103v335q0 10 10 12h6q9 -2 9 -12
v-455q0 -13 -12 -13q-13 0 -13 13v85l-101 -95q-3 -3 -9 -3t-9 3l-122 116q-4 4 -4 9v340q0 12 13 12q12 0 12 -12v-335z" />
    <glyph glyph-name="yacute" unicode="&#xfd;" 
d="M225 617q9 9 18 0t0 -18l-48 -45q-9 -9 -18 1q-4 4 -3.5 9t4.5 9zM320 133v335q0 12 13 12q12 0 12 -12v-551q0 -5 -4 -9l-122 -116q-3 -3 -9 -3t-9 3l-122 116q-9 9 -1 18q9 9 18 0l114 -107l110 103v176l-101 -95q-3 -3 -9 -3t-9 3l-122 116q-4 4 -4 9v340q0 12 13 12
q12 0 12 -12v-335l110 -103z" />
    <glyph glyph-name="thorn" unicode="&#xfe;" horiz-adv-x="660" 
d="M320 -106v205v489q0 13 13 13q12 0 12 -13v-206l101 95q4 4 9 4t9 -4l122 -115q4 -4 4 -9v-224q0 -6 -4 -10l-122 -115q-4 -4 -9 -4q-4 0 -9 4l-101 95v-205q0 -13 -12 -13q-13 0 -13 13zM455 451l-110 -104v-213l110 -104l110 104v213zM320 134z" />
    <glyph glyph-name="ydieresis" unicode="&#xff;" 
d="M173 601v-30q0 -4 -3 -5l-24 -14q-4 -2 -7 0l-24 14q-2 1 -2 5v30q0 4 2 5l24 14q3 2 7 0l24 -14q3 -2 3 -5zM308 601v-30q0 -4 -3 -5l-24 -14q-4 -2 -7 0l-24 14q-2 1 -2 5v30q0 4 2 5l24 14q3 2 7 0l24 -14q3 -2 3 -5zM210 30l-110 103v335q0 12 -12 12q-13 0 -13 -12
v-340q0 -5 4 -9l122 -116q3 -3 9 -3t9 3l101 95v-175l-110 -103l-114 107q-9 9 -18 0q-8 -9 1 -18l122 -116q3 -3 9 -3t9 3l122 116q4 4 4 9v550q0 12 -12 12q-13 0 -13 -12v-335z" />
    <glyph glyph-name="Abreve" unicode="&#x102;" 
d="M100 131v-118q0 -13 -12 -13q-13 0 -13 13v579q0 5 4 9l122 115q4 4 9 4t9 -4l122 -115q4 -4 4 -9v-579q0 -13 -12 -13q-13 0 -13 13v325zM210 690l-110 -104v-420l220 207v213zM270 823q0 -4 -0.5 -7t-4.5 -5l-48 -28q-7 -4 -14 0l-47 28q-6 4 -6 12v28q0 9 8 9
q9 0 9 -9v-21q0 -5 4 -8l34 -20q4 -2 6 -1.5t4 1.5l34 20q4 3 4 8v21q0 9 9 9q8 0 8 -9v-28z" />
    <glyph glyph-name="abreve" unicode="&#x103;" 
d="M210 451l-114 -108q-4 -4 -9 -3.5t-9 4.5q-8 9 1 18l122 115q4 4 9 4t9 -4l122 -115q4 -4 4 -10v-224q0 -5 -4 -9l-122 -116q-3 -3 -9 -3t-9 3l-122 116q-4 4 -4 9v117q0 5 4 9l122 116q4 4 9 4t9 -4l101 -95v72zM100 240v-107l110 -103l110 103v107l-110 103zM270 584
q0 -4 -0.5 -7t-4.5 -5l-48 -28q-7 -4 -14 0l-47 28q-6 4 -6 12v28q0 9 8 9q9 0 9 -9v-21q0 -5 4 -8l34 -20q4 -2 6 -1.5t4 1.5l34 20q4 3 4 8v21q0 9 9 9q8 0 8 -9v-28z" />
    <glyph glyph-name="Aogonek" unicode="&#x104;" 
d="M100 131v-118q0 -13 -12 -13q-13 0 -13 13v579q0 5 4 9l122 115q4 4 9 4t9 -4l122 -115q4 -4 4 -9v-579q0 -13 -12 -13q-13 0 -13 13v325zM210 690l-110 -104v-420l220 207v213zM322 -123q-4 -1 -7 -1t-5 4l-36 43q-5 6 -2 13l20 51q3 7 11 8l27 5q9 1 11 -7q1 -9 -8 -10
l-21 -4q-5 0 -7 -5l-14 -37q-1 -4 -0.5 -6t2.5 -3l25 -31q3 -3 8 -2l21 3q9 1 10 -7q2 -8 -7 -10z" />
    <glyph glyph-name="aogonek" unicode="&#x105;" 
d="M210 451l-114 -108q-4 -4 -9 -3.5t-9 4.5q-8 9 1 18l122 115q4 4 9 4t9 -4l122 -115q4 -4 4 -10v-224q0 -5 -4 -9l-122 -116q-3 -3 -9 -3t-9 3l-122 116q-4 4 -4 9v117q0 5 4 9l122 116q4 4 9 4t9 -4l101 -95v72zM100 240v-107l110 -103l110 103v107l-110 103zM199 -123
q-4 -1 -7 -1t-5 4l-36 43q-5 6 -2 13l20 51q3 7 11 8l27 5q9 1 11 -7q1 -9 -8 -10l-21 -4q-5 0 -7 -5l-14 -37q-1 -4 -0.5 -6t2.5 -3l25 -31q3 -3 8 -2l21 3q9 1 10 -7q2 -8 -7 -10z" />
    <glyph glyph-name="Cacute" unicode="&#x106;" horiz-adv-x="401" 
d="M210 690l-110 -104v-453l110 -103l114 107q9 9 18 0t-1 -18l-122 -116q-3 -3 -9 -3t-9 3l-122 116q-4 4 -4 10v463q0 5 4 9l122 115q4 4 9 4t9 -4l122 -115q10 -9 1 -18t-18 0zM226 856q9 9 18 0t0 -18l-48 -45q-9 -9 -18 1q-4 4 -3.5 9t4.5 9z" />
    <glyph glyph-name="cacute" unicode="&#x107;" horiz-adv-x="421" 
d="M210 451l-110 -104v-214l110 -103l114 107q9 9 18 0t-1 -18l-122 -116q-3 -3 -9 -3t-9 3l-122 116q-4 4 -4 9v224q0 6 4 10l122 115q4 4 9 4t9 -4l122 -115q10 -9 1 -18q-4 -4 -9 -4.5t-9 3.5zM226 617q9 9 18 0t0 -18l-48 -45q-9 -9 -18 1q-4 4 -3.5 9t4.5 9z" />
    <glyph glyph-name="Ccaron" unicode="&#x10c;" horiz-adv-x="401" 
d="M210 690l-110 -104v-453l110 -103l114 107q9 9 18 0t-1 -18l-122 -116q-3 -3 -9 -3t-9 3l-122 116q-4 4 -4 10v463q0 5 4 9l122 115q4 4 9 4t9 -4l122 -115q10 -9 1 -18t-18 0zM155 836q-10 9 -1 18q9 10 18 1l39 -37l39 37q4 4 9.5 4t8.5 -5q9 -9 0 -18l-48 -44
q-4 -4 -9 -4t-9 4z" />
    <glyph glyph-name="ccaron" unicode="&#x10d;" horiz-adv-x="421" 
d="M210 451l-110 -104v-214l110 -103l114 107q9 9 18 0t-1 -18l-122 -116q-3 -3 -9 -3t-9 3l-122 116q-4 4 -4 9v224q0 6 4 10l122 115q4 4 9 4t9 -4l122 -115q10 -9 1 -18q-4 -4 -9 -4.5t-9 3.5zM155 597q-10 9 -1 18q9 10 18 1l39 -37l39 37q4 4 9.5 4t8.5 -5q9 -9 0 -18
l-48 -44q-4 -4 -9 -4t-9 4z" />
    <glyph glyph-name="Dcaron" unicode="&#x10e;" 
d="M210 720q6 0 9 -3l122 -116q4 -4 4 -8v-466q0 -4 -4 -8l-122 -116q-3 -3 -9 -3h-124q-11 0 -11 13v694q0 13 11 13h124zM210 690h-110v-660h110l110 103v454zM154 836q-10 9 -1 18q9 10 18 1l39 -37l39 37q4 4 9.5 4t8.5 -5q9 -9 0 -18l-48 -44q-4 -4 -9 -4t-9 4z" />
    <glyph glyph-name="dcaron" unicode="&#x10f;" horiz-adv-x="616" 
d="M345 128q0 -5 -4 -9l-122 -116q-3 -3 -9 -3t-9 3l-122 116q-4 4 -4 9v224q0 6 4 10l122 115q4 4 9 4t9 -4l101 -95v325q0 13 13 13q12 0 12 -13v-579zM210 451l-110 -104v-214l110 -103l110 103v214zM421 677q0 9 6 13l47 28q8 4 14 0l48 -28q4 -2 4.5 -5t0.5 -8v-56
q0 -4 -0.5 -7.5t-4.5 -5.5l-99 -56q-4 -2 -8.5 -1t-6.5 5t-1 8.5t5 6.5l33 18l-32 19q-6 4 -6 13v56zM442 631q0 -5 4 -8l31 -18q4 -2 9 0l30 18q4 3 4 8v36q0 5 -4 8l-30 18q-5 2 -9 0l-31 -18q-4 -3 -4 -8v-36z" />
    <glyph glyph-name="Dcroat" unicode="&#x110;" horiz-adv-x="475" 
d="M265 720q6 0 9 -3l122 -116q4 -4 4 -8v-466q0 -4 -4 -8l-122 -116q-3 -3 -9 -3h-124q-11 0 -11 13v334h-42q-13 0 -13 13t13 13h42v334q0 13 11 13h124zM155 30h110l110 103v454l-110 103h-110v-317h43q12 0 12 -13t-12 -13h-43v-317z" />
    <glyph glyph-name="dcroat" unicode="&#x111;" horiz-adv-x="491" 
d="M210 451l-110 -104v-214l110 -103l110 103v214zM345 643v-515q0 -5 -4 -9l-122 -116q-3 -3 -9 -3t-9 3l-122 116q-4 4 -4 9v224q0 6 4 10l122 115q4 4 9 4t9 -4l101 -95v261h-57q-13 0 -13 12q0 13 13 13h57v39q0 13 13 13q12 0 12 -13v-39h59q12 0 12 -13q0 -12 -12 -12
h-59z" />
    <glyph glyph-name="Ecaron" unicode="&#x11a;" horiz-adv-x="396" 
d="M210 690l-110 -104v-213h116q13 0 13 -13q0 -12 -13 -12h-116v-215l110 -103l114 107q9 9 18 0t-1 -18l-122 -116q-3 -3 -9 -3t-9 3l-122 116q-4 4 -4 10v463q0 5 4 9l122 115q4 4 9 4t9 -4l122 -115q10 -9 1 -18t-18 0zM154 836q-10 9 -1 18q9 10 18 1l39 -37l39 37
q4 4 9.5 4t8.5 -5q9 -9 0 -18l-48 -44q-4 -4 -9 -4t-9 4z" />
    <glyph glyph-name="ecaron" unicode="&#x11b;" horiz-adv-x="421" 
d="M110 125l100 -95l114 107q9 9 18 0t-1 -18l-122 -116q-3 -3 -9 -3t-9 3l-122 116q-4 4 -4 9v224q0 6 4 10l122 115q4 4 9 4t9 -4l122 -115q4 -4 4 -10q0 -5 -4 -9zM210 451l-110 -104v-196l214 201zM155 597q-10 9 -1 18q9 10 18 1l39 -37l39 37q4 4 9.5 4t8.5 -5
q9 -9 0 -18l-48 -44q-4 -4 -9 -4t-9 4z" />
    <glyph glyph-name="dotlessi" unicode="&#x131;" horiz-adv-x="190" 
d="M95 0q-13 0 -13 13v453q0 13 13 13t13 -13v-453q0 -13 -13 -13z" />
    <glyph glyph-name="Lslash" unicode="&#x141;" horiz-adv-x="401" 
d="M100 354v-221l110 -103l114 107q9 9 18 0t-1 -18l-122 -116q-3 -3 -9 -3t-9 3l-122 116q-4 4 -4 9v201l-28 -28q-8 -8 -17 0q-9 9 -1 18l46 46v342q0 13 13 13q12 0 12 -13v-318l29 29q9 10 19 0q8 -8 -1 -17z" />
    <glyph glyph-name="lslash" unicode="&#x142;" horiz-adv-x="189" 
d="M107 354v-341q0 -13 -12 -13q-13 0 -13 13v316l-28 -28q-8 -8 -17 0q-9 9 -1 18l46 46v342q0 13 13 13q12 0 12 -13v-318l29 29q9 10 19 0q8 -8 -1 -17z" />
    <glyph glyph-name="Nacute" unicode="&#x143;" 
d="M210 690l-110 -103v-574q0 -13 -12 -13q-13 0 -13 13v579q0 5 4 9l122 116q3 3 9 3t9 -3l122 -116q4 -4 4 -9v-579q0 -13 -12 -13q-13 0 -13 13v574zM225 856q9 9 18 0t0 -18l-48 -45q-9 -9 -18 1q-4 4 -3.5 9t4.5 9z" />
    <glyph glyph-name="nacute" unicode="&#x144;" 
d="M210 451l-110 -104v-335q0 -8 -9 -12h-6q-10 3 -10 12v456q0 12 13 12q12 0 12 -12v-86l101 95q4 4 9 4t9 -4l122 -115q4 -4 4 -10v-339q0 -13 -12 -13q-13 0 -13 13v334zM225 617q9 9 18 0t0 -18l-48 -45q-9 -9 -18 1q-4 4 -3.5 9t4.5 9z" />
    <glyph glyph-name="Ncaron" unicode="&#x147;" 
d="M210 690l-110 -103v-574q0 -13 -12 -13q-13 0 -13 13v579q0 5 4 9l122 116q3 3 9 3t9 -3l122 -116q4 -4 4 -9v-579q0 -13 -12 -13q-13 0 -13 13v574zM154 836q-10 9 -1 18q9 10 18 1l39 -37l39 37q4 4 9.5 4t8.5 -5q9 -9 0 -18l-48 -44q-4 -4 -9 -4t-9 4z" />
    <glyph glyph-name="ncaron" unicode="&#x148;" 
d="M210 451l-110 -104v-335q0 -8 -9 -12h-6q-10 3 -10 12v456q0 12 13 12q12 0 12 -12v-86l101 95q4 4 9 4t9 -4l122 -115q4 -4 4 -10v-339q0 -13 -12 -13q-13 0 -13 13v334zM154 597q-10 9 -1 18q9 10 18 1l39 -37l39 37q4 4 9.5 4t8.5 -5q9 -9 0 -18l-48 -44q-4 -4 -9 -4
t-9 4z" />
    <glyph glyph-name="OE" unicode="&#x152;" horiz-adv-x="666" 
d="M464 491q9 -9 0 -18l-119 -111v-229l110 -103l114 107q9 9 18 0t-1 -18l-122 -116q-3 -3 -9 -3q-5 0 -9 3l-113 107l-114 -107q-3 -3 -9 -3t-9 3l-122 116q-4 4 -4 9v464q0 5 4 9l122 115q4 4 9 4t9 -4l114 -107l113 107q4 4 9 4t9 -4l122 -115q10 -9 1 -18t-18 0
l-114 107l-110 -104v-189l101 95q4 4 9 3.5t9 -4.5zM210 690l-110 -104v-453l110 -103l110 103v453z" />
    <glyph glyph-name="oe" unicode="&#x153;" horiz-adv-x="666" 
d="M355 125l100 -95l114 107q9 9 18 0t-1 -18l-122 -116q-3 -3 -9 -3t-9 3l-113 107l-114 -107q-3 -3 -9 -3t-9 3l-122 116q-4 4 -4 9v224q0 6 4 10l122 115q4 4 9 4t9 -4l114 -107l113 107q4 4 9 4t9 -4l122 -115q4 -4 4 -10q0 -5 -4 -9zM210 451l-110 -104v-214l110 -103
l110 103v214zM455 451l-110 -104v-196l214 201z" />
    <glyph glyph-name="Rcaron" unicode="&#x158;" 
d="M287 306l54 -52q4 -4 4 -9v-232q0 -13 -12 -13q-13 0 -13 13v227l-52 49l-49 -46q-3 -4 -9 -4q-5 0 -9 4l-101 95v-325q0 -13 -12 -13q-13 0 -13 13v579q0 5 4 9l122 115q4 4 9 4t9 -4l122 -115q4 -4 4 -9v-224q0 -6 -4 -10zM210 690l-110 -104v-213l110 -104l110 104
v213zM154 836q-10 9 -1 18q9 10 18 1l39 -37l39 37q4 4 9.5 4t8.5 -5q9 -9 0 -18l-48 -44q-4 -4 -9 -4t-9 4z" />
    <glyph glyph-name="rcaron" unicode="&#x159;" horiz-adv-x="381" 
d="M83 0q-13 0 -13 13v339q0 6 4 10l122 115q4 4 9 4t9 -4l122 -115q10 -9 1 -18q-4 -4 -9 -4.5t-9 3.5l-114 108l-110 -104v-334q0 -13 -12 -13zM150 597q-10 9 -1 18q9 10 18 1l39 -37l39 37q4 4 9.5 4t8.5 -5q9 -9 0 -18l-48 -44q-4 -4 -9 -4t-9 4z" />
    <glyph glyph-name="Sacute" unicode="&#x15a;" horiz-adv-x="423" 
d="M98 586v-105l241 -227q4 -4 4 -9v-117q0 -5 -4 -9l-122 -116q-3 -3 -9 -3t-9 3l-122 116q-4 4 -4 9v117q0 13 13 13q12 0 12 -13v-112l110 -103l110 103v107l-241 226q-4 4 -4 9v117q0 5 4 9l122 115q4 4 9 4t9 -4l122 -115q4 -4 4 -9v-117q0 -13 -12 -13q-13 0 -13 13
v111l-110 104zM223 856q9 9 18 0t0 -18l-48 -45q-9 -9 -18 1q-4 4 -3.5 9t4.5 9z" />
    <glyph glyph-name="sacute" unicode="&#x15b;" horiz-adv-x="389" 
d="M90 353l234 -215q9 -9 0 -19l-122 -116q-3 -3 -9 -3t-9 3l-122 116q-9 9 -1 18q9 9 18 0l114 -107l104 98l-235 215q-3 3 -3.5 5.5t-0.5 5.5q0 4 4 8l122 115q4 4 9 4t9 -4l122 -115q10 -9 1 -18q-4 -4 -9 -4.5t-9 3.5l-114 108zM208 617q9 9 18 0t0 -18l-48 -45
q-9 -9 -18 1q-4 4 -3.5 9t4.5 9z" />
    <glyph glyph-name="Scedilla" unicode="&#x15e;" horiz-adv-x="423" 
d="M208 0q-6 0 -9 3l-122 116q-4 4 -4 9v117q0 13 13 13q12 0 12 -13v-112l110 -103l110 103v107l-241 226q-4 4 -4 9v117q0 5 4 9l122 115q4 4 9 4t9 -4l122 -115q4 -4 4 -9v-117q0 -13 -12 -13q-13 0 -13 13v111l-110 104l-110 -104v-105l241 -227q4 -4 4 -9v-117
q0 -5 -4 -9l-113 -107l38 -36q4 -4 4 -9v-50q0 -6 -4 -10l-46 -44q-5 -3 -9 -3q-7 0 -10 3l-46 44q-4 4 -4 10v37q0 13 12 13q13 0 13 -13v-31l35 -32l34 32v38z" />
    <glyph glyph-name="scedilla" unicode="&#x15f;" horiz-adv-x="389" 
d="M193 0q-6 0 -9 3l-122 116q-9 9 -1 18q9 9 18 0l114 -107l104 98l-235 215q-3 3 -3.5 5.5t-0.5 5.5q0 4 4 8l122 115q4 4 9 4t9 -4l122 -115q10 -9 1 -18q-4 -4 -9 -4.5t-9 3.5l-114 108l-103 -98l234 -215q9 -9 0 -19l-113 -107l38 -36q4 -4 4 -9v-50q0 -6 -4 -10
l-46 -44q-5 -3 -9 -3q-7 0 -10 3l-46 44q-4 4 -4 10v37q0 13 12 13q13 0 13 -13v-31l35 -32l34 32v38z" />
    <glyph glyph-name="Scaron" unicode="&#x160;" 
d="M154 836q-10 9 -1 18q9 10 18 1l39 -37l39 37q4 4 9.5 4t8.5 -5q9 -9 0 -18l-48 -44q-4 -4 -9 -4t-9 4zM100 586v-105l241 -227q4 -4 4 -9v-117q0 -5 -4 -9l-122 -116q-3 -3 -9 -3t-9 3l-122 116q-4 4 -4 9v117q0 13 13 13q12 0 12 -13v-112l110 -103l110 103v107
l-241 226q-4 4 -4 9v117q0 5 4 9l122 115q4 4 9 4t9 -4l122 -115q4 -4 4 -9v-117q0 -13 -12 -13q-13 0 -13 13v111l-110 104z" />
    <glyph glyph-name="scaron" unicode="&#x161;" horiz-adv-x="421" 
d="M154 597q-10 9 -1 18q9 10 18 1l39 -37l39 37q4 4 9.5 4t8.5 -5q9 -9 0 -18l-48 -44q-4 -4 -9 -4t-9 4zM107 353l234 -215q9 -9 0 -19l-122 -116q-3 -3 -9 -3t-9 3l-122 116q-9 9 -1 18q9 9 18 0l114 -107l104 98l-235 215q-3 3 -3.5 5.5t-0.5 5.5q0 4 4 8l122 115
q4 4 9 4t9 -4l122 -115q10 -9 1 -18q-4 -4 -9 -4.5t-9 3.5l-114 108z" />
    <glyph glyph-name="uni0162" unicode="&#x162;" horiz-adv-x="341" 
d="M157 678l-101 -95q-9 -9 -18 0q-8 9 1 18l122 115q4 4 9 4t9 -4l122 -115q10 -9 1 -18t-18 0l-101 95v-661l5 -5l38 -36q4 -4 4 -9v-50q0 -6 -4 -10l-46 -44q-5 -3 -9 -3q-7 0 -10 3l-46 44q-4 4 -4 10v37q0 13 12 13q13 0 13 -13v-31l35 -32l34 32v38l-35 39
q-13 0 -13 13v3v662z" />
    <glyph glyph-name="uni0163" unicode="&#x163;" horiz-adv-x="368" 
d="M207 0q-6 0 -9 3l-122 116q-4 4 -4 9v579q0 13 13 13q12 0 12 -13v-335h116q13 0 13 -12q0 -13 -13 -13h-116v-214l110 -103l114 107q9 9 18 0t-1 -18l-113 -107l38 -36q4 -4 4 -9v-50q0 -6 -4 -10l-46 -44q-5 -3 -9 -3q-7 0 -10 3l-46 44q-4 4 -4 10v37q0 13 12 13
q13 0 13 -13v-31l35 -32l34 32v38z" />
    <glyph glyph-name="Tcaron" unicode="&#x164;" horiz-adv-x="341" 
d="M157 678l-101 -95q-9 -9 -18 0q-8 9 1 18l122 115q4 4 9 4t9 -4l122 -115q10 -9 1 -18t-18 0l-101 95v-665q0 -13 -13 -13t-13 13v665zM114 836q-10 9 -1 18q9 10 18 1l39 -37l39 37q4 4 9.5 4t8.5 -5q9 -9 0 -18l-48 -44q-4 -4 -9 -4t-9 4z" />
    <glyph glyph-name="tcaron" unicode="&#x165;" horiz-adv-x="368" 
d="M97 133l110 -103l114 107q9 9 18 0t-1 -18l-122 -116q-3 -3 -9 -3t-9 3l-122 116q-4 4 -4 9v579q0 13 13 13q12 0 12 -13v-335h116q13 0 13 -12q0 -13 -13 -13h-116v-214zM173 677q0 9 6 13l47 28q8 4 14 0l48 -28q4 -2 4.5 -5t0.5 -8v-56q0 -4 -0.5 -7.5t-4.5 -5.5
l-99 -56q-4 -2 -8.5 -1t-6.5 5t-1 8.5t5 6.5l33 18l-32 19q-6 4 -6 13v56zM194 631q0 -5 4 -8l31 -18q4 -2 9 0l30 18q4 3 4 8v36q0 5 -4 8l-30 18q-5 2 -9 0l-31 -18q-4 -3 -4 -8v-36z" />
    <glyph glyph-name="Uring" unicode="&#x16e;" 
d="M100 133l110 -103h110v677q0 13 13 13q12 0 12 -13v-694q0 -13 -12 -13h-123q-6 0 -9 3l-122 116q-4 4 -4 8v580q0 13 13 13q12 0 12 -13v-574zM150 761v56q0 9 6 13l47 28q7 4 14 0l48 -28q4 -2 4.5 -5t0.5 -8v-56q0 -4 -0.5 -7.5t-4.5 -5.5l-48 -27q-7 -4 -14 0l-47 27
q-6 4 -6 13zM171 771q0 -5 4 -8l31 -18q4 -3 9 0l30 18q4 3 4 8v36q0 5 -4 8l-30 18q-4 3 -9 0l-31 -18q-4 -3 -4 -8v-36z" />
    <glyph glyph-name="uring" unicode="&#x16f;" 
d="M210 30l110 103v335q0 10 10 12h6q9 -2 9 -12v-455q0 -13 -12 -13q-13 0 -13 13v85l-101 -95q-3 -3 -9 -3t-9 3l-122 116q-4 4 -4 9v340q0 12 13 12q12 0 12 -12v-335zM150 522v56q0 9 6 13l47 28q7 4 14 0l48 -28q4 -2 4.5 -5t0.5 -8v-56q0 -4 -0.5 -7.5t-4.5 -5.5
l-48 -27q-7 -4 -14 0l-47 27q-6 4 -6 13zM171 532q0 -5 4 -8l31 -18q4 -3 9 0l30 18q4 3 4 8v36q0 5 -4 8l-30 18q-4 3 -9 0l-31 -18q-4 -3 -4 -8v-36z" />
    <glyph glyph-name="Ydieresis" unicode="&#x178;" 
d="M173 840v-30q0 -4 -3 -5l-24 -14q-4 -2 -7 0l-24 14q-2 1 -2 5v30q0 4 2 5l24 14q3 2 7 0l24 -14q3 -2 3 -5zM308 840v-30q0 -4 -3 -5l-24 -14q-4 -2 -7 0l-24 14q-2 1 -2 5v30q0 4 2 5l24 14q3 2 7 0l24 -14q3 -2 3 -5zM210 377l-110 104v226q0 13 -12 13q-13 0 -13 -13
v-231q0 -6 4 -10l118 -112v-341q0 -13 13 -13t13 13v341l118 112q4 4 4 10v231q0 13 -12 13q-13 0 -13 -13v-226z" />
    <glyph glyph-name="Zacute" unicode="&#x179;" horiz-adv-x="423" 
d="M208 690l-110 -104v-111q0 -13 -12 -13q-13 0 -13 13v117q0 5 4 9l122 115q4 4 9 4t9 -4l122 -115q4 -4 4 -9v-117q0 -5 -4 -9l-241 -226v-107l110 -103l110 103v112q0 13 13 13q12 0 12 -13v-117q0 -5 -4 -9l-122 -116q-3 -3 -9 -3t-9 3l-122 116q-4 4 -4 9v117q0 5 4 9
l241 227v105zM223 856q9 9 18 0t0 -18l-48 -45q-9 -9 -18 1q-4 4 -3.5 9t4.5 9z" />
    <glyph glyph-name="zacute" unicode="&#x17a;" horiz-adv-x="389" 
d="M194 451l-114 -108q-4 -4 -9 -3.5t-9 4.5q-9 9 1 18l122 115q4 4 9 4t9 -4l122 -115q4 -4 4 -8q0 -3 -0.5 -5.5t-3.5 -5.5l-235 -215l104 -98l114 107q9 9 18 0q8 -9 -1 -18l-122 -116q-3 -3 -9 -3t-9 3l-122 116q-9 10 0 19l234 215zM209 617q9 9 18 0t0 -18l-48 -45
q-9 -9 -18 1q-4 4 -3.5 9t4.5 9z" />
    <glyph glyph-name="Zdotaccent" unicode="&#x17b;" horiz-adv-x="423" 
d="M208 690l-110 -104v-111q0 -13 -12 -13q-13 0 -13 13v117q0 5 4 9l122 115q4 4 9 4t9 -4l122 -115q4 -4 4 -9v-117q0 -5 -4 -9l-241 -226v-107l110 -103l110 103v112q0 13 13 13q12 0 12 -13v-117q0 -5 -4 -9l-122 -116q-3 -3 -9 -3t-9 3l-122 116q-4 4 -4 9v117q0 5 4 9
l241 227v105zM238 840v-30q0 -4 -3 -5l-24 -14q-4 -2 -7 0l-24 14q-2 1 -2 5v30q0 4 2 5l24 14q3 2 7 0l24 -14q3 -2 3 -5z" />
    <glyph glyph-name="zdotaccent" unicode="&#x17c;" horiz-adv-x="389" 
d="M194 451l-114 -108q-4 -4 -9 -3.5t-9 4.5q-9 9 1 18l122 115q4 4 9 4t9 -4l122 -115q4 -4 4 -8q0 -3 -0.5 -5.5t-3.5 -5.5l-235 -215l104 -98l114 107q9 9 18 0q8 -9 -1 -18l-122 -116q-3 -3 -9 -3t-9 3l-122 116q-9 10 0 19l234 215zM224 601v-30q0 -4 -3 -5l-24 -14
q-4 -2 -7 0l-24 14q-2 1 -2 5v30q0 4 2 5l24 14q3 2 7 0l24 -14q3 -2 3 -5z" />
    <glyph glyph-name="Zcaron" unicode="&#x17d;" 
d="M154 836q-10 9 -1 18q9 10 18 1l39 -37l39 37q4 4 9.5 4t8.5 -5q9 -9 0 -18l-48 -44q-4 -4 -9 -4t-9 4zM210 690l-110 -104v-111q0 -13 -12 -13q-13 0 -13 13v117q0 5 4 9l122 115q4 4 9 4t9 -4l122 -115q4 -4 4 -9v-117q0 -5 -4 -9l-241 -226v-107l110 -103l110 103v112
q0 13 13 13q12 0 12 -13v-117q0 -5 -4 -9l-122 -116q-3 -3 -9 -3t-9 3l-122 116q-4 4 -4 9v117q0 5 4 9l241 227v105z" />
    <glyph glyph-name="zcaron" unicode="&#x17e;" horiz-adv-x="421" 
d="M211 451l-114 -108q-4 -4 -9 -3.5t-9 4.5q-9 9 1 18l122 115q4 4 9 4t9 -4l122 -115q4 -4 4 -8q0 -3 -0.5 -5.5t-3.5 -5.5l-235 -215l104 -98l114 107q9 9 18 0q8 -9 -1 -18l-122 -116q-3 -3 -9 -3t-9 3l-122 116q-9 10 0 19l234 215zM154 597q-10 9 -1 18q9 10 18 1
l39 -37l39 37q4 4 9.5 4t8.5 -5q9 -9 0 -18l-48 -44q-4 -4 -9 -4t-9 4z" />
    <glyph glyph-name="uni0218" unicode="&#x218;" horiz-adv-x="423" 
d="M98 586v-105l241 -227q4 -4 4 -9v-117q0 -5 -4 -9l-122 -116q-3 -3 -9 -3t-9 3l-122 116q-4 4 -4 9v117q0 13 13 13q12 0 12 -13v-112l110 -103l110 103v107l-241 226q-4 4 -4 9v117q0 5 4 9l122 115q4 4 9 4t9 -4l122 -115q4 -4 4 -9v-117q0 -13 -12 -13q-13 0 -13 13
v111l-110 104zM148 -69q0 9 6 13l47 28q8 4 14 0l48 -28q4 -2 4.5 -5t0.5 -8v-56q0 -4 -0.5 -7.5t-4.5 -5.5l-99 -56q-4 -2 -8.5 -1t-6.5 5t-1 8.5t5 6.5l33 18l-32 19q-6 4 -6 13v56zM169 -115q0 -5 4 -8l31 -18q4 -2 9 0l30 18q4 3 4 8v36q0 5 -4 8l-30 18q-5 2 -9 0
l-31 -18q-4 -3 -4 -8v-36z" />
    <glyph glyph-name="uni0219" unicode="&#x219;" horiz-adv-x="389" 
d="M90 353l234 -215q9 -9 0 -19l-122 -116q-3 -3 -9 -3t-9 3l-122 116q-9 9 -1 18q9 9 18 0l114 -107l104 98l-235 215q-3 3 -3.5 5.5t-0.5 5.5q0 4 4 8l122 115q4 4 9 4t9 -4l122 -115q10 -9 1 -18q-4 -4 -9 -4.5t-9 3.5l-114 108zM134 -69q0 9 6 13l47 28q8 4 14 0l48 -28
q4 -2 4.5 -5t0.5 -8v-56q0 -4 -0.5 -7.5t-4.5 -5.5l-99 -56q-4 -2 -8.5 -1t-6.5 5t-1 8.5t5 6.5l33 18l-32 19q-6 4 -6 13v56zM155 -115q0 -5 4 -8l31 -18q4 -2 9 0l30 18q4 3 4 8v36q0 5 -4 8l-30 18q-5 2 -9 0l-31 -18q-4 -3 -4 -8v-36z" />
    <glyph glyph-name="uni021A" unicode="&#x21a;" horiz-adv-x="341" 
d="M157 678l-101 -95q-9 -9 -18 0q-8 9 1 18l122 115q4 4 9 4t9 -4l122 -115q10 -9 1 -18t-18 0l-101 95v-665q0 -13 -13 -13t-13 13v665zM110 -69q0 9 6 13l47 28q8 4 14 0l48 -28q4 -2 4.5 -5t0.5 -8v-56q0 -4 -0.5 -7.5t-4.5 -5.5l-99 -56q-4 -2 -8.5 -1t-6.5 5t-1 8.5
t5 6.5l33 18l-32 19q-6 4 -6 13v56zM131 -115q0 -5 4 -8l31 -18q4 -2 9 0l30 18q4 3 4 8v36q0 5 -4 8l-30 18q-5 2 -9 0l-31 -18q-4 -3 -4 -8v-36z" />
    <glyph glyph-name="uni021B" unicode="&#x21b;" horiz-adv-x="368" 
d="M97 133l110 -103l114 107q9 9 18 0t-1 -18l-122 -116q-3 -3 -9 -3t-9 3l-122 116q-4 4 -4 9v579q0 13 13 13q12 0 12 -13v-335h116q13 0 13 -12q0 -13 -13 -13h-116v-214zM148 -69q0 9 6 13l47 28q8 4 14 0l48 -28q4 -2 4.5 -5t0.5 -8v-56q0 -4 -0.5 -7.5t-4.5 -5.5
l-99 -56q-4 -2 -8.5 -1t-6.5 5t-1 8.5t5 6.5l33 18l-32 19q-6 4 -6 13v56zM169 -115q0 -5 4 -8l31 -18q4 -2 9 0l30 18q4 3 4 8v36q0 5 -4 8l-30 18q-5 2 -9 0l-31 -18q-4 -3 -4 -8v-36z" />
    <glyph glyph-name="circumflex" unicode="&#x2c6;" horiz-adv-x="272" 
d="M127 856q4 4 9 4t9 -4l48 -44q9 -9 0 -18q-3 -5 -8.5 -5t-9.5 4l-39 37l-39 -37q-9 -9 -18 1q-9 9 1 18z" />
    <glyph glyph-name="caron" unicode="&#x2c7;" horiz-adv-x="272" 
d="M80 836q-10 9 -1 18q9 10 18 1l39 -37l39 37q4 4 9.5 4t8.5 -5q9 -9 0 -18l-48 -44q-4 -4 -9 -4t-9 4z" />
    <glyph glyph-name="breve" unicode="&#x2d8;" horiz-adv-x="270" 
d="M195 823q0 -4 -0.5 -7t-4.5 -5l-48 -28q-7 -4 -14 0l-47 28q-6 4 -6 12v28q0 9 8 9q9 0 9 -9v-21q0 -5 4 -8l34 -20q4 -2 6 -1.5t4 1.5l34 20q4 3 4 8v21q0 9 9 9q8 0 8 -9v-28z" />
    <glyph glyph-name="dotaccent" unicode="&#x2d9;" horiz-adv-x="210" 
d="M135 840v-30q0 -4 -3 -5l-24 -14q-4 -2 -7 0l-24 14q-2 1 -2 5v30q0 4 2 5l24 14q3 2 7 0l24 -14q3 -2 3 -5z" />
    <glyph glyph-name="ring" unicode="&#x2da;" horiz-adv-x="270" 
d="M75 761v56q0 9 6 13l47 28q7 4 14 0l48 -28q4 -2 4.5 -5t0.5 -8v-56q0 -4 -0.5 -7.5t-4.5 -5.5l-48 -27q-7 -4 -14 0l-47 27q-6 4 -6 13zM96 771q0 -5 4 -8l31 -18q4 -3 9 0l30 18q4 3 4 8v36q0 5 -4 8l-30 18q-4 3 -9 0l-31 -18q-4 -3 -4 -8v-36z" />
    <glyph glyph-name="ogonek" unicode="&#x2db;" horiz-adv-x="400" 
d="M219 -123q-4 -1 -7 -1t-5 4l-36 43q-5 6 -2 13l20 51q3 7 11 8l27 5q9 1 11 -7q1 -9 -8 -10l-21 -4q-5 0 -7 -5l-14 -37q-1 -4 -0.5 -6t2.5 -3l25 -31q3 -3 8 -2l21 3q9 1 10 -7q2 -8 -7 -10z" />
    <glyph glyph-name="tilde" unicode="&#x2dc;" horiz-adv-x="320" 
d="M127 856q4 4 9 4t9 -4l39 -36l39 36q9 9 18 0t0 -18l-48 -45q-3 -3 -9 -3q-5 0 -8 3l-40 37l-39 -37q-9 -9 -18 1q-4 4 -3.5 9t4.5 9z" />
    <glyph glyph-name="uni0401" unicode="&#x401;" horiz-adv-x="421" 
d="M173 840v-30q0 -4 -3 -5l-24 -14q-4 -2 -7 0l-24 14q-2 1 -2 5v30q0 4 2 5l24 14q3 2 7 0l24 -14q3 -2 3 -5zM308 840v-30q0 -4 -3 -5l-24 -14q-4 -2 -7 0l-24 14q-2 1 -2 5v30q0 4 2 5l24 14q3 2 7 0l24 -14q3 -2 3 -5zM210 690l-110 -104v-213h116q13 0 13 -13
q0 -12 -13 -12h-116v-215l110 -103l114 107q9 9 18 0t-1 -18l-122 -116q-3 -3 -9 -3t-9 3l-122 116q-4 4 -4 10v463q0 5 4 9l122 115q4 4 9 4t9 -4l122 -115q10 -9 1 -18t-18 0z" />
    <glyph glyph-name="uni0404" unicode="&#x404;" horiz-adv-x="421" 
d="M210 690l-110 -104v-213h56q13 0 13 -13q0 -12 -13 -12h-56v-215l110 -103l114 107q9 9 18 0t-1 -18l-122 -116q-3 -3 -9 -3t-9 3l-122 116q-4 4 -4 10v463q0 5 4 9l122 115q4 4 9 4t9 -4l122 -115q10 -9 1 -18t-18 0z" />
    <glyph glyph-name="uni0406" unicode="&#x406;" horiz-adv-x="205" 
d="M103 0q-13 0 -13 13v694q0 13 13 13q12 0 12 -13v-694q0 -13 -12 -13z" />
    <glyph glyph-name="uni0407" unicode="&#x407;" horiz-adv-x="345" 
d="M135 840v-30q0 -4 -3 -5l-24 -14q-4 -2 -7 0l-24 14q-2 1 -2 5v30q0 4 2 5l24 14q3 2 7 0l24 -14q3 -2 3 -5zM270 840v-30q0 -4 -3 -5l-24 -14q-4 -2 -7 0l-24 14q-2 1 -2 5v30q0 4 2 5l24 14q3 2 7 0l24 -14q3 -2 3 -5zM172 0q13 0 13 13v694q0 13 -13 13t-13 -13v-694
q0 -13 13 -13z" />
    <glyph glyph-name="uni040E" unicode="&#x40e;" 
d="M345 445q0 -5 -4 -9l-79 -76l79 -75q4 -4 4 -9v-1v-263q0 -12 -12 -12q-13 0 -13 12v258l-81 77h-58l-22 13l-80 76q-4 4 -4 9v262q0 13 13 13q12 0 12 -13v-257l81 -76h58l81 76v257q0 13 13 13q12 0 12 -13v-262v0zM210 -87l110 103l25 -5q0 -5 -4 -9l-122 -116
q-3 -3 -9 -3t-9 3l-122 116q-10 9 -1 18t18 0zM270 823q0 -4 -0.5 -7t-4.5 -5l-48 -28q-7 -4 -14 0l-47 28q-6 4 -6 12v28q0 9 8 9q9 0 9 -9v-21q0 -5 4 -8l34 -20q4 -2 6 -1.5t4 1.5l34 20q4 3 4 8v21q0 9 9 9q8 0 8 -9v-28z" />
    <glyph glyph-name="uni0410" unicode="&#x410;" 
d="M100 131v-118q0 -13 -12 -13q-13 0 -13 13v579q0 5 4 9l122 115q4 4 9 4t9 -4l122 -115q4 -4 4 -9v-579q0 -13 -12 -13q-13 0 -13 13v325zM210 690l-110 -104v-420l220 207v213z" />
    <glyph glyph-name="uni0411" unicode="&#x411;" horiz-adv-x="421" 
d="M100 586v-204l101 95q4 4 9 4t9 -4l122 -115q4 -4 4 -10v-224q0 -5 -4 -9l-122 -116q-3 -3 -9 -3t-9 3l-122 116q-4 4 -4 9v464q0 5 4 9l110 104l12 11q8 8 17 1l1 -1q9 -9 -1 -18l-10 -10zM320 133v214l-110 104l-110 -104v-214l110 -103z" />
    <glyph glyph-name="uni0412" unicode="&#x412;" 
d="M229 360l112 -106q4 -4 4 -9v-116q0 -6 -4 -10l-122 -116q-3 -3 -9 -3q-5 0 -9 3l-122 116q-4 4 -4 10v463q0 5 4 9l122 115q4 4 9 4t9 -4l122 -115q4 -4 4 -9v-117q0 -5 -4 -9zM320 240l-114 108h-106v-215l110 -103l110 103v107zM210 690l-110 -104v-213h106l114 108
v105z" />
    <glyph glyph-name="uni0413" unicode="&#x413;" horiz-adv-x="401" 
d="M210 690l-110 -103v-574q0 -13 -12 -13q-13 0 -13 13v579q0 5 4 9l122 116q3 3 9 3t9 -3l122 -116q10 -9 1 -18t-18 0z" />
    <glyph glyph-name="uni0414" unicode="&#x414;" horiz-adv-x="692" 
d="M239 26h220v561l-110 103l-110 -103v-561zM88 0q-13 0 -13 12q0 14 13 14h126v566q0 5 4 9l122 116q3 3 9 3t9 -3l122 -116q4 -4 4 -9v-566h125q13 0 13 -14q0 -12 -13 -12h-521z" />
    <glyph glyph-name="uni0415" unicode="&#x415;" horiz-adv-x="396" 
d="M210 690l-110 -104v-213h116q13 0 13 -13q0 -12 -13 -12h-116v-215l110 -103l114 107q9 9 18 0t-1 -18l-122 -116q-3 -3 -9 -3t-9 3l-122 116q-4 4 -4 10v463q0 5 4 9l122 115q4 4 9 4t9 -4l122 -115q10 -9 1 -18t-18 0z" />
    <glyph glyph-name="uni0416" unicode="&#x416;" horiz-adv-x="675" 
d="M325 6v342h-106l-114 -108v-227q0 -13 -13 -13q-12 0 -12 13v232q0 5 4 9l112 106l-112 106q-4 4 -4 9v232q0 13 12 13q13 0 13 -13v-226l114 -108h106v334q0 4 1 6q2 6 9 7h3q8 0 10 -6l1 -1q1 -2 1 -6v-334h106l114 108v226q0 13 13 13q12 0 12 -13v-232q0 -5 -4 -9
l-112 -106l112 -106q4 -4 4 -9v-232q0 -13 -12 -13q-13 0 -13 13v227l-114 108h-106v-338q-1 -4 -3 -7l-3 -3h-12q-3 1 -5 4z" />
    <glyph glyph-name="uni0417" unicode="&#x417;" 
d="M210 690l-114 -107q-9 -9 -18 0q-8 9 1 18l122 115q4 4 9 4t9 -4l122 -115q4 -4 4 -11v-114q0 -6 -4 -10l-114 -108l114 -109q4 -4 4 -9v-112q0 -6 -4 -10l-122 -115q-3 -3 -9 -3t-9 3l-122 116q-9 9 -1 18q9 9 18 0l114 -107l110 103v102l-119 111h-63q-13 0 -13 12
q0 13 13 13h68l114 110v105z" />
    <glyph glyph-name="uni0418" unicode="&#x418;" 
d="M333 1q-13 0 -13 13v85l-101 -96q-3 -3 -9 -3t-9 3l-122 116q-4 4 -4 9v579q0 13 13 13q12 0 12 -13v-574l110 -103l110 103v577l1 3q2 5 7 6q1 1 2 1h5q1 -1 2 -1h2l3 -3l1 -2q2 -3 2 -7v-693q0 -13 -12 -13z" />
    <glyph glyph-name="uni0419" unicode="&#x419;" 
d="M333 1q-13 0 -13 13v85l-101 -96q-3 -3 -9 -3t-9 3l-122 116q-4 4 -4 9v579q0 13 13 13q12 0 12 -13v-574l110 -103l110 103v579q1 2 2 3q0 1 2 2l2 2h2q1 1 2 1h5q1 -1 2 -1t3 -1l2 -2l1 -2q0 -1 1 -2t1 -3v-695q0 -13 -12 -13zM270 823q0 -4 -0.5 -7t-4.5 -5l-48 -28
q-7 -4 -14 0l-47 28q-6 4 -6 12v28q0 9 8 9q9 0 9 -9v-21q0 -5 4 -8l34 -20q4 -2 6 -1.5t4 1.5l34 20q4 3 4 8v21q0 9 9 9q8 0 8 -9v-28z" />
    <glyph glyph-name="uni041A" unicode="&#x41a;" horiz-adv-x="430" 
d="M211 373l114 108v226q0 13 13 13q12 0 12 -13v-232q0 -5 -4 -9l-112 -106l112 -106q4 -4 4 -9v-232q0 -13 -12 -13q-13 0 -13 13v227l-114 108h-106v-335q0 -13 -12 -13q-13 0 -13 13v694q0 13 13 13q12 0 12 -13v-334h106z" />
    <glyph glyph-name="uni041B" unicode="&#x41b;" horiz-adv-x="527" 
d="M182 132v460q0 5 4 9l122 115q4 4 9 4t9 -4l122 -115q4 -4 4 -9v-579q0 -13 -12 -13q-13 0 -13 13v573l-110 104l-110 -104v-459q0 -7 -4 -12l-106 -110q-9 -10 -18 -1t0 18z" />
    <glyph glyph-name="uni041C" unicode="&#x41c;" horiz-adv-x="665" 
d="M210 690l-110 -104v-573q0 -13 -12 -13q-13 0 -13 13v579q0 5 4 9l122 115q4 4 9 4t9 -4l114 -107l113 107q4 4 9 4t9 -4l122 -115q4 -4 4 -9v-579q0 -13 -12 -13q-13 0 -13 13v573l-110 104l-110 -104v-573q0 -13 -12 -13q-13 0 -13 13v573z" />
    <glyph glyph-name="uni041D" unicode="&#x41d;" 
d="M320 707q0 13 12 13q13 0 13 -13v-695q0 -9 -10 -12h-6q-9 4 -9 12v119l-220 207v-326q0 -9 -10 -12h-6q-9 4 -9 12v695q0 13 12 13q13 0 13 -13v-334l220 -207v541z" />
    <glyph glyph-name="uni041E" unicode="&#x41e;" 
d="M210 690l-110 -104v-453l110 -103l110 103v453zM75 592q0 5 4 9l122 115q4 4 9 4t9 -4l122 -115q4 -4 4 -9v-464q0 -5 -4 -9l-122 -116q-3 -3 -9 -3t-9 3l-122 116q-4 4 -4 9v464z" />
    <glyph glyph-name="uni041F" unicode="&#x41f;" 
d="M87 719q13 0 13 -13v-85l101 96q3 3 9 3t9 -3l122 -116q4 -4 4 -9v-579q0 -13 -13 -13q-12 0 -12 13v574l-110 103l-110 -103v-577l-1 -4l-4 -4l-2 -1l-3 -1h-3q-4 0 -6 1q-2 0 -3 1q-3 3 -3 8v696q0 13 12 13z" />
    <glyph glyph-name="uni0420" unicode="&#x420;" horiz-adv-x="415" 
d="M345 368q0 -6 -4 -10l-122 -115q-4 -4 -9 -4q-4 0 -9 4l-101 95v-325q0 -13 -12 -13q-13 0 -13 13v579q0 6 4 9l122 115q4 4 9 4t9 -4l122 -115q4 -4 4 -9v-224zM210 690l-110 -104v-213l110 -104l110 104v213z" />
    <glyph glyph-name="uni0421" unicode="&#x421;" horiz-adv-x="401" 
d="M210 690l-110 -104v-453l110 -103l114 107q9 9 18 0t-1 -18l-122 -116q-3 -3 -9 -3t-9 3l-122 116q-4 4 -4 10v463q0 5 4 9l122 115q4 4 9 4t9 -4l122 -115q10 -9 1 -18t-18 0z" />
    <glyph glyph-name="uni0422" unicode="&#x422;" horiz-adv-x="341" 
d="M157 678l-101 -95q-9 -9 -18 0q-8 9 1 18l122 115q4 4 9 4t9 -4l122 -115q10 -9 1 -18t-18 0l-101 95v-665q0 -13 -13 -13t-13 13v665z" />
    <glyph glyph-name="uni0423" unicode="&#x423;" 
d="M210 -87l110 103v254l-81 77h-58l-22 13l-80 76q-4 4 -4 9v262q0 13 13 13q12 0 12 -13v-257l81 -76h58l81 76v257q0 13 13 13q12 0 12 -13v-262q0 -5 -4 -9l-79 -76l79 -75q4 -4 4 -9v-267l-1 -2q-1 -3 -3 -5l-122 -116q-3 -3 -9 -3t-9 3l-122 116q-10 9 -1 18t18 0z
" />
    <glyph glyph-name="uni0424" unicode="&#x424;" horiz-adv-x="660" 
d="M321 4q-1 1 -1 3v331l-101 -95q-5 -4 -9 -4q-5 0 -9 4l-122 115q-4 4 -4 10v224q0 5 4 9l122 115q4 4 9 4t9 -4l101 -95v86q0 13 13 13q12 0 12 -13v-86l101 95q4 4 9 4t9 -4l122 -115q4 -4 4 -9v-224q0 -6 -4 -10l-122 -115q-4 -4 -9 -4q-4 0 -9 4l-101 95v-328
q0 -2 -1 -3q-1 -3 -3 -5l-1 -1h-1l-2 -1h-10q-4 1 -6 4zM455 690l-110 -104v-213l110 -104l110 104v213zM100 586v-213l110 -104l110 104v213l-110 104z" />
    <glyph glyph-name="uni0425" unicode="&#x425;" 
d="M345 445q0 -5 -4 -9l-79 -76l79 -75q4 -4 4 -9v-264q0 -12 -12 -12q-13 0 -13 12v258l-81 77h-58l-81 -77v-258q0 -12 -12 -12q-13 0 -13 12v264q0 5 4 9l80 75l-80 76q-4 4 -4 9v262q0 13 13 13q12 0 12 -13v-257l81 -76h58l81 76v257q0 13 13 13q12 0 12 -13v-262z" />
    <glyph glyph-name="uni0426" unicode="&#x426;" 
d="M228 -103q-9 -9 -18 0t1 18l109 103v81l-101 -96q-3 -3 -9 -3t-9 3l-122 116q-4 4 -4 9v579q0 13 13 13q12 0 12 -13v-574l110 -103l110 103v577l1 3l1 2q1 2 3 3l3 1q1 1 2 1h3q3 0 6 -1l2 -2q2 -2 3 -5q1 -2 1 -5v-693q0 -7 -3 -11z" />
    <glyph glyph-name="uni0427" unicode="&#x427;" 
d="M333 0q-13 0 -13 13v334h-139l-22 13l-80 76q-4 4 -4 9v262q0 13 13 13q12 0 12 -13v-257l81 -76h139v333q0 13 13 13q12 0 12 -13v-697q0 -10 -12 -10z" />
    <glyph glyph-name="uni0428" unicode="&#x428;" horiz-adv-x="665" 
d="M578 1q-13 0 -13 13v85l-101 -95q-4 -4 -9 -4t-9 4l-113 107l-114 -107q-4 -4 -9 -4t-9 4l-122 115q-4 4 -4 9v579q0 13 13 13q12 0 12 -13v-573l110 -104l110 104v573q0 13 13 13q12 0 12 -13v-573l110 -104l110 104v578q1 2 3 4t5 3q2 1 5 1h2q3 -1 5 -2l2 -2l2 -4
q1 -2 1 -5v-693q0 -13 -12 -13z" />
    <glyph glyph-name="uni0429" unicode="&#x429;" horiz-adv-x="665" 
d="M320 134v573q0 13 13 13q12 0 12 -13v-573l110 -104l110 104v576q1 5 4 7l2 2q2 1 4 1h5q2 -1 4 -1l1 -1q2 -1 3 -4q0 -1 1 -2t1 -3v-695q0 -7 -4 -11l-113 -106q-9 -9 -18 0t1 18l109 103v81l-101 -95q-4 -4 -9 -4t-9 4l-113 107l-114 -107q-4 -4 -9 -4t-9 4l-122 115
q-4 4 -4 9v579q0 13 13 13q12 0 12 -13v-573l110 -104z" />
    <glyph glyph-name="uni042A" unicode="&#x42a;" horiz-adv-x="537" 
d="M467 128q0 -5 -4 -9l-122 -115q-4 -4 -9 -4t-9 4l-122 115q-4 3 -4 9v549l-100 -94q-9 -9 -18 0q-8 9 1 18l122 115q3 3 8 4h4q4 0 6 -4t2 -9v-325l101 95q5 4 9 4q5 0 9 -4l122 -115q4 -4 4 -10v-224zM442 134v213l-110 104l-110 -104v-213l110 -104z" />
    <glyph glyph-name="uni042B" unicode="&#x42b;" horiz-adv-x="550" 
d="M345 128q0 -5 -4 -9l-122 -115q-4 -4 -9 -4t-9 4l-122 115q-4 3 -4 9v579q0 13 13 13q12 0 12 -13v-325l101 95q5 4 9 4q5 0 9 -4l122 -115q4 -4 4 -10v-224zM320 134v213l-110 104l-110 -104v-213l110 -104zM448 0q-13 0 -13 13v694q0 13 13 13q12 0 12 -13v-694
q0 -13 -12 -13z" />
    <glyph glyph-name="uni042C" unicode="&#x42c;" horiz-adv-x="415" 
d="M345 128q0 -5 -4 -9l-122 -115q-4 -4 -9 -4t-9 4l-122 115q-4 3 -4 9v579q0 13 13 13q12 0 12 -13v-325l101 95q5 4 9 4q5 0 9 -4l122 -115q4 -4 4 -10v-224zM320 134v213l-110 104l-110 -104v-213l110 -104z" />
    <glyph glyph-name="uni042D" unicode="&#x42d;" horiz-adv-x="396" 
d="M97 583q-9 -9 -18 0t1 18l122 115q4 4 9 4t9 -4l122 -115q4 -4 4 -9v-463q0 -6 -4 -10l-122 -116q-3 -3 -9 -3t-9 3l-122 116q-10 9 -1 18t18 0l114 -107l110 103v215h-116q-13 0 -13 12q0 13 13 13h116v213l-110 104z" />
    <glyph glyph-name="uni042E" unicode="&#x42e;" horiz-adv-x="555" 
d="M210 592q0 5 4 9l122 115q4 4 9 4t9 -4l122 -115q4 -4 4 -9v-464q0 -5 -4 -9l-122 -116q-3 -3 -9 -3t-9 3l-122 116q-4 4 -4 9v106l-110 -103v-119q0 -8 -9 -12h-6q-10 3 -10 12v695q0 13 13 13q12 0 12 -13v-541l110 104v322zM345 690l-110 -104v-453l110 -103l110 103
v453z" />
    <glyph glyph-name="uni042F" unicode="&#x42f;" 
d="M79 358q-4 4 -4 10v224q0 5 4 9l122 115q4 4 9 4t9 -4l122 -115q4 -4 4 -9v-579q0 -13 -13 -13q-12 0 -12 13v325l-101 -95q-4 -4 -9 -4q-6 0 -9 4l-49 46l-52 -49v-227q0 -13 -13 -13q-12 0 -12 13v232q0 5 4 9l54 52zM100 586v-213l110 -104l110 104v213l-110 104z" />
    <glyph glyph-name="uni0430" unicode="&#x430;" 
d="M210 451l-114 -108q-4 -4 -9 -3.5t-9 4.5q-8 9 1 18l122 115q4 4 9 4t9 -4l122 -115q4 -4 4 -10v-224q0 -5 -4 -9l-122 -116q-3 -3 -9 -3t-9 3l-122 116q-4 4 -4 9v117q0 5 4 9l122 116q4 4 9 4t9 -4l101 -95v72zM100 240v-107l110 -103l110 103v107l-110 103z" />
    <glyph glyph-name="uni0431" unicode="&#x431;" 
d="M99 275l101 95q4 4 9 4t9 -4l122 -116q4 -4 4 -9v-117q0 -5 -4 -9l-122 -116q-3 -3 -9 -3t-9 3l-122 116q-4 4 -4 9v435q0 5 4 9l127 118q7 5 15 -1q11 -9 0 -18l-121 -113v-283zM209 343l-110 -103v-107l110 -103l110 103v107z" />
    <glyph glyph-name="uni0432" unicode="&#x432;" horiz-adv-x="382" 
d="M323 173q4 -4 4 -9v-36q0 -5 -4 -9l-122 -116q-3 -3 -9 -3t-9 3l-121 115q-5 2 -5 9v230q2 3 4 5l122 116q3 3 9 3t9 -3l122 -116q4 -4 4 -9v-36q0 -5 -4 -9l-71 -68zM82 133l110 -103l110 103v26l-74 69h-146v-95zM302 322v26l-110 103l-110 -103v-95h146z" />
    <glyph glyph-name="uni0433" unicode="&#x433;" horiz-adv-x="389" 
d="M193 451l-114 -108q-4 -4 -9 -3.5t-9 4.5q-9 9 1 18l122 115q4 4 9 4t9 -4l122 -115q4 -4 4 -8q0 -3 -0.5 -5.5t-3.5 -5.5l-235 -215l104 -98l114 107q9 9 18 0q8 -9 -1 -18l-122 -116q-3 -3 -9 -3t-9 3l-122 116q-9 10 0 19l234 215z" />
    <glyph glyph-name="uni0434" unicode="&#x434;" 
d="M219 688l12 -11l110 -105q4 -4 4 -9v-434q0 -6 -4 -10l-122 -115q-4 -4 -9 -4t-9 4l-122 115q-4 4 -4 10v224q0 5 4 9l122 116q4 3 9 3q6 0 9 -3l101 -95v175l-110 103l-11 10q-10 9 1 19q9 6 19 -2zM320 134v214l-110 103l-110 -103v-214l110 -104z" />
    <glyph glyph-name="uni0435" unicode="&#x435;" horiz-adv-x="421" 
d="M110 125l100 -95l114 107q9 9 18 0t-1 -18l-122 -116q-3 -3 -9 -3t-9 3l-122 116q-4 4 -4 9v224q0 6 4 10l122 115q4 4 9 4t9 -4l122 -115q4 -4 4 -10q0 -5 -4 -9zM210 451l-110 -104v-196l214 201z" />
    <glyph glyph-name="uni0436" unicode="&#x436;" horiz-adv-x="677" 
d="M326 131l-168 157l-52 -48v-227q0 -13 -13 -13q-12 0 -12 13v232q0 5 4 9l54 52l-54 51q-7 6 -5 12v100q0 12 13 12q12 0 13 -12v-97l220 -206v307q3 7 13 8q9 -1 12 -8v-307l221 207v96q0 12 13 12q12 0 12 -12v-101q1 -5 -5 -11l-54 -51l54 -52q4 -4 4 -9v-232
q0 -13 -12 -13q-13 0 -13 13v227l-52 48l-168 -157v-118q0 -13 -12 -13q-13 0 -13 13v118z" />
    <glyph glyph-name="uni0437" unicode="&#x437;" horiz-adv-x="384" 
d="M79 344q-4 -4 -8.5 -3.5t-8.5 4.5q-9 9 1 17l1 1l6 7v-1l115 109q3 3 9 3t9 -3l122 -116q4 -4 4 -9v-36q0 -5 -4 -9l-71 -68l71 -67q4 -4 4 -9v-36q0 -5 -4 -9l-122 -116q-3 -3 -9 -3t-9 3l-121 114l-6 7q-3 7 3 14l1 1q8 7 17 -1l10 -10l105 -98l110 103v26l-74 69h-92
q-13 0 -13 12q0 13 13 13h92l74 69v26l-110 103l-106 -99z" />
    <glyph glyph-name="uni0438" unicode="&#x438;" 
d="M210 30l110 104v335q0 8 9 12h6q10 -3 10 -12v-456q0 -12 -13 -12q-12 0 -12 12v86l-101 -95q-4 -4 -9 -4t-9 4l-122 115q-4 4 -4 10v339q0 13 12 13q13 0 13 -13v-334z" />
    <glyph glyph-name="uni0439" unicode="&#x439;" 
d="M210 30l110 104v335q0 8 9 12h6q10 -3 10 -12v-456q0 -12 -13 -12q-12 0 -12 12v86l-101 -95q-4 -4 -9 -4t-9 4l-122 115q-4 4 -4 10v339q0 13 12 13q13 0 13 -13v-334zM270 584q0 -4 -0.5 -7t-4.5 -5l-48 -28q-7 -4 -14 0l-47 28q-6 4 -6 12v28q0 9 8 9q9 0 9 -9v-21
q0 -5 4 -8l34 -20q4 -2 6 -1.5t4 1.5l34 20q4 3 4 8v21q0 9 9 9q8 0 8 -9v-28z" />
    <glyph glyph-name="uni043A" unicode="&#x43a;" horiz-adv-x="431" 
d="M292 306l54 -52q4 -4 4 -9v-232q0 -13 -12 -13q-13 0 -13 13v227l-52 48l-168 -157v-118q0 -13 -12 -13q-13 0 -13 13v458q1 10 13 10t12 -13v-302l224 210q9 9 18 -1q9 -9 -1 -18z" />
    <glyph glyph-name="uni043B" unicode="&#x43b;" horiz-adv-x="537" 
d="M327 451l-110 -104v-210q0 -6 -3 -9l-116 -122q-9 -9 -18 -1q-9 9 0 18l107 114l5 5v210q0 6 4 10l122 115q4 4 9 4t9 -4l122 -115q4 -4 4 -10v-339q0 -13 -12 -13q-13 0 -13 13v334z" />
    <glyph glyph-name="uni043C" unicode="&#x43c;" horiz-adv-x="665" 
d="M210 451l-110 -104v-335q0 -8 -9 -12h-6q-10 3 -10 12v340q0 6 4 10l122 115q4 4 9 4t9 -4l114 -107l113 107q4 4 9 4t9 -4l122 -115q4 -4 4 -10v-339q0 -13 -12 -13q-13 0 -13 13v334l-110 104l-110 -104v-111q0 -13 -12 -13q-13 0 -13 13v111z" />
    <glyph glyph-name="uni043D" unicode="&#x43d;" horiz-adv-x="426" 
d="M101 337v-324q0 -13 -12 -13q-13 0 -13 13v458q1 10 13 10t12 -13v-96l220 -206v302q0 13 13 13q11 0 12 -10v-458q0 -13 -13 -13q-12 0 -12 13v118z" />
    <glyph glyph-name="uni043E" unicode="&#x43e;" 
d="M345 128q0 -5 -4 -9l-122 -116q-3 -3 -9 -3t-9 3l-122 116q-4 4 -4 9v224q0 6 4 10l122 115q4 4 9 4t9 -4l122 -115q4 -4 4 -10v-224zM210 451l-110 -104v-214l110 -103l110 103v214z" />
    <glyph glyph-name="uni043F" unicode="&#x43f;" 
d="M210 451l-110 -104v-335q0 -8 -9 -12h-6q-10 3 -10 12v456q0 12 13 12q12 0 12 -12v-86l101 95q4 4 9 4t9 -4l122 -115q4 -4 4 -10v-339q0 -13 -12 -13q-13 0 -13 13v334z" />
    <glyph glyph-name="uni0440" unicode="&#x440;" 
d="M75 352q0 6 4 10l122 115q4 4 9 4t9 -4l122 -115q4 -4 4 -10v-224q0 -2 -0.5 -4t-3.5 -5l-122 -116q-3 -3 -9 -3t-9 3l-101 95v-295q0 -13 -12 -13q-13 0 -13 13v549zM210 30l110 103v214l-110 104l-110 -104v-214z" />
    <glyph glyph-name="uni0441" unicode="&#x441;" horiz-adv-x="421" 
d="M210 451l-110 -104v-214l110 -103l114 107q9 9 18 0t-1 -18l-122 -116q-3 -3 -9 -3t-9 3l-122 116q-4 4 -4 9v224q0 6 4 10l122 115q4 4 9 4t9 -4l122 -115q10 -9 1 -18q-4 -4 -9 -4.5t-9 3.5z" />
    <glyph glyph-name="uni0442" unicode="&#x442;" horiz-adv-x="665" 
d="M210 451l-110 -104v-335q0 -8 -9 -12h-6q-10 3 -10 12v456q0 12 13 12q12 0 12 -12v-86l101 95q4 4 9 4t9 -4l114 -107l113 107q4 4 9 4t9 -4l122 -115q4 -4 4 -10v-339q0 -13 -12 -13q-13 0 -13 13v334l-110 104l-110 -104v-334q0 -13 -12 -13q-13 0 -13 13v334z" />
    <glyph glyph-name="uni0443" unicode="&#x443;" 
d="M320 133v335q0 12 13 12q12 0 12 -12v-550q0 -5 -4 -9l-122 -116q-3 -3 -9 -3t-9 3l-122 116q-9 9 -1 18q9 9 18 0l114 -107l110 103v175l-101 -95q-3 -3 -9 -3t-9 3l-122 116q-4 4 -4 9v340q0 12 13 12q12 0 12 -12v-335l110 -103z" />
    <glyph glyph-name="uni0444" unicode="&#x444;" horiz-adv-x="665" 
d="M346 -199q0 -10 -13 -11q-13 1 -13 11v297l-101 -95q-3 -3 -9 -3t-9 3l-122 116q-3 3 -3.5 5t-0.5 4v224q0 6 4 10l122 115q4 4 9 4t9 -4l101 -95v296q0 13 13 13t13 -13v-296l100 95q4 4 9 4t9 -4l122 -115q4 -4 4 -10v-224q0 -2 -0.5 -4t-3.5 -5l-122 -116q-3 -3 -9 -3
t-9 3l-100 94v-84v-212zM320 133v214l-110 104l-110 -104v-214l110 -103zM455 30l110 103v214l-110 104l-109 -103v-216z" />
    <glyph glyph-name="uni0445" unicode="&#x445;" horiz-adv-x="430" 
d="M215 258l110 103v107q0 12 13 12q12 0 12 -12v-112q0 -6 -4 -10l-112 -106l112 -106q4 -4 4 -9v-112q0 -13 -12 -13q-13 0 -13 13v106l-110 104l-110 -104v-106q0 -13 -12 -13q-13 0 -13 13v112q0 5 4 9l113 106l-113 106q-4 4 -4 9v113q0 12 13 12q12 0 12 -12v-107z
" />
    <glyph glyph-name="uni0446" unicode="&#x446;" 
d="M343 5l-1 -1l-109 -102q-9 -9 -18 0q-8 9 1 18l104 99v80l-101 -95q-4 -4 -9 -4t-9 4l-122 115q-4 4 -4 10v339q0 13 12 13q13 0 13 -13v-334l110 -104l110 104v335q0 8 9 12h6q10 -3 10 -12v-456q0 -5 -2 -8z" />
    <glyph glyph-name="uni0447" unicode="&#x447;" 
d="M345 12q0 -12 -12 -12q-13 0 -13 12v228h-110q-5 0 -9 4l-122 115q-4 4 -4 10v99q0 13 12 13q13 0 13 -13v-94l114 -108h106v202q0 13 13 13q12 0 12 -13v-456z" />
    <glyph glyph-name="uni0448" unicode="&#x448;" horiz-adv-x="665" 
d="M455 30l110 104v335q0 12 12 12q13 0 13 -12v-456q0 -12 -13 -12q-12 0 -12 12v86l-101 -95q-4 -4 -9 -4t-9 4l-114 107l-113 -107q-4 -4 -9 -4t-9 4l-122 115q-4 4 -4 10v339q0 13 12 13q13 0 13 -13v-334l110 -104l110 104v334q0 13 12 13q13 0 13 -13v-334z" />
    <glyph glyph-name="uni0449" unicode="&#x449;" horiz-adv-x="665" 
d="M586 3l-110 -103q-9 -9 -18 0q-8 9 1 18l106 101v80l-101 -95q-4 -4 -9 -4t-9 4l-114 107l-113 -107q-4 -4 -9 -4t-9 4l-122 115q-4 4 -4 10v339q0 13 12 13q13 0 13 -13v-334l110 -104l110 104v334q0 13 12 13q13 0 13 -13v-334l110 -104l110 104v335q0 12 13 12
q12 0 12 -12v-456q0 -7 -4 -10z" />
    <glyph glyph-name="uni044A" unicode="&#x44a;" horiz-adv-x="539" 
d="M218 275l101 95q4 4 9 4t9 -4l122 -116q4 -4 4 -9v-117q0 -5 -4 -9l-122 -116q-3 -3 -9 -3t-9 3l-122 116q-4 4 -4 9v309l-97 -91q-9 -9 -18 0q-8 9 1 18l116 111q3 4 11 4q12 0 12 -13v-191zM328 343l-110 -103v-107l110 -103l110 103v107z" />
    <glyph glyph-name="uni044B" unicode="&#x44b;" horiz-adv-x="528" 
d="M99 275l101 95q4 4 9 4t9 -4l122 -116q4 -4 4 -9v-117q0 -5 -4 -9l-122 -116q-3 -3 -9 -3t-9 3l-122 116q-4 4 -4 9v338q0 13 13 13q12 0 12 -13v-191zM209 343l-110 -103v-107l110 -103l110 103v107zM433 0q-13 0 -13 13v453q0 13 13 13t13 -13v-453q0 -13 -13 -13z" />
    <glyph glyph-name="uni044C" unicode="&#x44c;" 
d="M99 275l101 95q4 4 9 4t9 -4l122 -116q4 -4 4 -9v-117q0 -5 -4 -9l-122 -116q-3 -3 -9 -3t-9 3l-122 116q-4 4 -4 9v338q0 13 13 13q12 0 12 -13v-191zM209 343l-110 -103v-107l110 -103l110 103v107z" />
    <glyph glyph-name="uni044D" unicode="&#x44d;" horiz-adv-x="421" 
d="M97 343q-4 -4 -9 -3.5t-9 4.5q-9 9 1 18l122 115q4 4 9 4t9 -4l122 -115q4 -4 4 -10v-224q0 -5 -4 -9l-122 -116q-3 -3 -9 -3t-9 3l-122 116q-10 9 -1 18t18 0l114 -107l110 103v96h-168q-12 0 -12 13q0 12 12 12h168v93l-110 104z" />
    <glyph glyph-name="uni044E" unicode="&#x44e;" horiz-adv-x="555" 
d="M480 128q0 -5 -4 -9l-122 -116q-3 -3 -9 -3t-9 3l-122 116q-4 4 -4 9v106l-110 -103v-118q0 -13 -12 -13q-13 0 -13 13v455q0 13 13 13q12 0 12 -13v-302l110 103v83q0 6 4 10l122 115q4 4 9 4t9 -4l122 -115q4 -4 4 -10v-224zM345 451l-110 -104v-214l110 -103l110 103
v214z" />
    <glyph glyph-name="uni044F" unicode="&#x44f;" horiz-adv-x="431" 
d="M158 158l-52 -48v-97q0 -13 -13 -13q-12 0 -12 13v102q0 5 4 9l54 52l-54 51q-4 4 -4 9v117q0 5 4 9l122 116q3 3 9 3t9 -3l122 -116q4 -4 4 -9v-340q0 -13 -13 -13q-12 0 -12 13v193l-101 -95q-4 -4 -9 -4t-9 4zM216 138l110 103v107l-110 103l-110 -103v-107z" />
    <glyph glyph-name="uni0451" unicode="&#x451;" horiz-adv-x="421" 
d="M173 601v-30q0 -4 -3 -5l-24 -14q-4 -2 -7 0l-24 14q-2 1 -2 5v30q0 4 2 5l24 14q3 2 7 0l24 -14q3 -2 3 -5zM308 601v-30q0 -4 -3 -5l-24 -14q-4 -2 -7 0l-24 14q-2 1 -2 5v30q0 4 2 5l24 14q3 2 7 0l24 -14q3 -2 3 -5zM110 125l100 -95l114 107q9 9 18 0t-1 -18
l-122 -116q-3 -3 -9 -3t-9 3l-122 116q-4 4 -4 9v224q0 6 4 10l122 115q4 4 9 4t9 -4l122 -115q4 -4 4 -10q0 -5 -4 -9zM210 451l-110 -104v-196l214 201z" />
    <glyph glyph-name="uni0454" unicode="&#x454;" horiz-adv-x="421" 
d="M210 451l-110 -104v-93h168q10 0 12 -10v-6q-4 -9 -12 -9h-168v-96l110 -103l114 107q9 9 18 0t-1 -18l-122 -116q-3 -3 -9 -3t-9 3l-122 116q-4 4 -4 9v224q0 6 4 10l122 115q4 4 9 4t9 -4l122 -115q10 -9 1 -18q-4 -4 -9 -4.5t-9 3.5z" />
    <glyph glyph-name="uni0456" unicode="&#x456;" horiz-adv-x="190" 
d="M95 0q-13 0 -13 13v453q0 13 13 13t13 -13v-453q0 -13 -13 -13z" />
    <glyph glyph-name="uni0457" unicode="&#x457;" horiz-adv-x="345" 
d="M98 601v-30q0 -4 -3 -5l-24 -14q-4 -2 -7 0l-24 14q-2 1 -2 5v30q0 4 2 5l24 14q3 2 7 0l24 -14q3 -2 3 -5zM233 601v-30q0 -4 -3 -5l-24 -14q-4 -2 -7 0l-24 14q-2 1 -2 5v30q0 4 2 5l24 14q3 2 7 0l24 -14q3 -2 3 -5zM135 0q13 0 13 13v453q0 13 -13 13t-13 -13v-453
q0 -13 13 -13z" />
    <glyph glyph-name="uni045E" unicode="&#x45e;" 
d="M320 133v335q0 12 13 12q12 0 12 -12v-550q0 -5 -4 -9l-122 -116q-3 -3 -9 -3t-9 3l-122 116q-9 9 -1 18q9 9 18 0l114 -107l110 103v175l-101 -95q-3 -3 -9 -3t-9 3l-122 116q-4 4 -4 9v340q0 12 13 12q12 0 12 -12v-335l110 -103zM270 584q0 -4 -0.5 -7t-4.5 -5
l-48 -28q-7 -4 -14 0l-47 28q-6 4 -6 12v28q0 9 8 9q9 0 9 -9v-21q0 -5 4 -8l34 -20q4 -2 6 -1.5t4 1.5l34 20q4 3 4 8v21q0 9 9 9q8 0 8 -9v-28z" />
    <glyph glyph-name="uni0490" unicode="&#x490;" horiz-adv-x="401" 
d="M321 707q0 13 13 13q12 0 12 -13v-113q1 -6 -4 -11q-9 -9 -18 0l-114 107l-110 -103v-574q0 -13 -12 -13q-13 0 -13 13v579q0 5 4 9l122 116q3 3 9 3t9 -3l102 -97v87z" />
    <glyph glyph-name="uni0491" unicode="&#x491;" horiz-adv-x="551" 
d="M320 133v336q0 12 13 12q8 -1 10 -4l122 -115q10 -9 1 -18q-4 -4 -9 -4.5t-9 3.5l-103 97v-312q0 -6 -4 -9l-122 -116q-3 -3 -9 -3t-9 3l-122 116q-9 9 -1 18q9 9 18 0l114 -107z" />
    <glyph glyph-name="uni04C1" unicode="&#x4c1;" horiz-adv-x="675" 
d="M325 373v334q0 13 13 13q12 0 12 -13v-334h106l114 108v226q0 13 13 13q12 0 12 -13v-232q0 -5 -4 -9l-112 -106l112 -106q4 -4 4 -9v-232q0 -13 -12 -13q-13 0 -13 13v227l-114 108h-106v-335q-1 -13 -12 -13q-12 0 -13 13v335h-106l-114 -108v-227q0 -13 -13 -13
q-12 0 -12 13v232q0 5 4 9l112 106l-112 106q-4 4 -4 9v232q0 13 12 13q13 0 13 -13v-226l114 -108h106zM398 823q0 -4 -0.5 -7t-4.5 -5l-48 -28q-7 -4 -14 0l-47 28q-6 4 -6 12v28q0 9 8 9q9 0 9 -9v-21q0 -5 4 -8l34 -20q4 -2 6 -1.5t4 1.5l34 20q4 3 4 8v21q0 9 9 9
q8 0 8 -9v-28z" />
    <glyph glyph-name="uni04C2" unicode="&#x4c2;" horiz-adv-x="677" 
d="M326 131l-168 157l-52 -48v-227q0 -13 -13 -13q-12 0 -12 13v232q0 5 4 9l54 52l-54 51q-7 6 -5 12v100q0 12 13 12t13 -12v-97l220 -206v303q0 12 11 12q14 0 14 -12v-303l221 207v96q0 12 13 12q12 0 12 -12v-101q1 -5 -5 -11l-54 -51l54 -52q4 -4 4 -9v-232
q0 -13 -12 -13q-13 0 -13 13v227l-52 48l-168 -157v-118q0 -13 -12 -13q-13 0 -13 13v118zM398 584q0 -4 -0.5 -7t-4.5 -5l-48 -28q-7 -4 -14 0l-47 28q-6 4 -6 12v28q0 9 8 9q9 0 9 -9v-21q0 -5 4 -8l34 -20q4 -2 6 -1.5t4 1.5l34 20q4 3 4 8v21q0 9 9 9q8 0 8 -9v-28z" />
    <glyph glyph-name="endash" unicode="&#x2013;" horiz-adv-x="285" 
d="M75 360q0 13 13 13h109q13 0 13 -13t-13 -13h-109q-13 0 -13 13z" />
    <glyph glyph-name="emdash" unicode="&#x2014;" 
d="M75 360q0 13 13 13h245q12 0 12 -13t-12 -13h-245q-13 0 -13 13z" />
    <glyph glyph-name="quoteleft" unicode="&#x2018;" horiz-adv-x="271" 
d="M195 593q0 -9 -6 -13l-47 -27q-7 -4 -14 0l-48 27q-4 2 -4.5 5.5t-0.5 7.5v57q0 4 0.5 7t4.5 5l99 56q4 2 8.5 1t6.5 -5q5 -9 -4 -14l-33 -19l32 -19q6 -4 6 -12v-57zM174 639q0 5 -4 8l-31 18q-5 3 -9 0l-30 -18q-4 -3 -4 -8v-36q0 -5 4 -8l30 -18q4 -2 9 0l31 18
q4 3 4 8v36z" />
    <glyph glyph-name="quoteright" unicode="&#x2019;" horiz-adv-x="271" 
d="M76 678q0 9 6 13l47 27q7 3 14 0l48 -27q4 -2 4.5 -5.5t0.5 -7.5v-57q0 -4 -0.5 -7t-4.5 -5l-99 -56q-4 -2 -8.5 -1t-6.5 5q-5 9 4 14l33 19l-32 19q-6 4 -6 12v57zM97 632q0 -5 4 -8l31 -18q4 -3 9 0l30 18q4 3 4 8v36q0 5 -4 8l-30 18q-5 2 -9 0l-31 -18q-4 -3 -4 -8
v-36z" />
    <glyph glyph-name="quotesinglbase" unicode="&#x201a;" horiz-adv-x="271" 
d="M76 98q0 9 6 13l47 28q8 4 14 0l48 -28q4 -2 4.5 -5t0.5 -8v-56q0 -4 -0.5 -7.5t-4.5 -5.5l-99 -56q-4 -2 -8.5 -1t-6.5 5t-1 8.5t5 6.5l33 18l-32 19q-6 4 -6 13v56zM97 52q0 -5 4 -8l31 -18q4 -2 9 0l30 18q4 3 4 8v36q0 5 -4 8l-30 18q-5 2 -9 0l-31 -18q-4 -3 -4 -8
v-36z" />
    <glyph glyph-name="quotereversed" unicode="&#x201b;" horiz-adv-x="271" 
d="M195 621q0 -8 -6 -12l-32 -19l33 -19q9 -5 4 -14q-2 -4 -6.5 -5t-8.5 1l-99 56q-4 2 -4.5 5t-0.5 7v57q0 4 0.5 7.5t4.5 5.5l48 27q7 3 14 0l47 -27q6 -4 6 -13v-57zM174 668q0 5 -4 8l-31 18q-4 2 -9 0l-30 -18q-4 -3 -4 -8v-36q0 -5 4 -8l30 -18q5 -3 9 0l31 18
q4 3 4 8v36z" />
    <glyph glyph-name="quotedblleft" unicode="&#x201c;" horiz-adv-x="422" 
d="M346 593q0 -9 -6 -13l-47 -27q-7 -4 -14 0l-48 27q-4 2 -4.5 5.5t-0.5 7.5v57q0 4 0.5 7t4.5 5l99 56q4 2 8.5 1t6.5 -5q5 -9 -4 -14l-33 -19l32 -19q6 -4 6 -12v-57zM325 639q0 5 -4 8l-31 18q-5 3 -9 0l-30 -18q-4 -3 -4 -8v-36q0 -5 4 -8l30 -18q4 -2 9 0l31 18
q4 3 4 8v36zM195 593q0 -9 -6 -13l-47 -27q-7 -4 -14 0l-48 27q-4 2 -4.5 5.5t-0.5 7.5v57q0 4 0.5 7t4.5 5l99 56q4 2 8.5 1t6.5 -5q5 -9 -4 -14l-33 -19l32 -19q6 -4 6 -12v-57zM174 639q0 5 -4 8l-31 18q-5 3 -9 0l-30 -18q-4 -3 -4 -8v-36q0 -5 4 -8l30 -18q4 -2 9 0
l31 18q4 3 4 8v36z" />
    <glyph glyph-name="quotedblright" unicode="&#x201d;" horiz-adv-x="422" 
d="M76 678q0 9 6 13l47 27q7 3 14 0l48 -27q4 -2 4.5 -5.5t0.5 -7.5v-57q0 -4 -0.5 -7t-4.5 -5l-99 -56q-4 -2 -8.5 -1t-6.5 5q-5 9 4 14l33 19l-32 19q-6 4 -6 12v57zM97 632q0 -5 4 -8l31 -18q4 -3 9 0l30 18q4 3 4 8v36q0 5 -4 8l-30 18q-5 2 -9 0l-31 -18q-4 -3 -4 -8
v-36zM227 678q0 9 6 13l47 27q7 3 14 0l48 -27q4 -2 4.5 -5.5t0.5 -7.5v-57q0 -4 -0.5 -7t-4.5 -5l-99 -56q-4 -2 -8.5 -1t-6.5 5q-5 9 4 14l33 19l-32 19q-6 4 -6 12v57zM248 632q0 -5 4 -8l31 -18q4 -3 9 0l30 18q4 3 4 8v36q0 5 -4 8l-30 18q-5 2 -9 0l-31 -18
q-4 -3 -4 -8v-36z" />
    <glyph glyph-name="quotedblbase" unicode="&#x201e;" horiz-adv-x="422" 
d="M76 98q0 9 6 13l47 28q7 3 14 0l48 -28q4 -2 4.5 -5t0.5 -8v-56q0 -4 -0.5 -7.5t-4.5 -5.5l-99 -56q-4 -2 -8.5 -1t-6.5 5t-1 8.5t5 6.5l33 18l-32 19q-6 4 -6 13v56zM97 52q0 -5 4 -8l31 -18q4 -2 9 0l30 18q4 3 4 8v36q0 5 -4 8l-30 18q-5 2 -9 0l-31 -18q-4 -3 -4 -8
v-36zM227 98q0 9 6 13l47 28q7 3 14 0l48 -28q4 -2 4.5 -5t0.5 -8v-56q0 -4 -0.5 -7.5t-4.5 -5.5l-99 -56q-4 -2 -8.5 -1t-6.5 5t-1 8.5t5 6.5l33 18l-32 19q-6 4 -6 13v56zM248 52q0 -5 4 -8l31 -18q4 -2 9 0l30 18q4 3 4 8v36q0 5 -4 8l-30 18q-5 2 -9 0l-31 -18
q-4 -3 -4 -8v-36z" />
    <glyph glyph-name="uni201F" unicode="&#x201f;" horiz-adv-x="422" 
d="M346 621q0 -8 -6 -12l-32 -19l33 -19q9 -5 4 -14q-2 -4 -6.5 -5t-8.5 1l-99 56q-4 2 -4.5 5t-0.5 7v57q0 4 0.5 7.5t4.5 5.5l48 27q7 3 14 0l47 -27q6 -4 6 -13v-57zM325 668q0 5 -4 8l-31 18q-4 2 -9 0l-30 -18q-4 -3 -4 -8v-36q0 -5 4 -8l30 -18q5 -3 9 0l31 18
q4 3 4 8v36zM195 621q0 -8 -6 -12l-32 -19l33 -19q9 -5 4 -14q-2 -4 -6.5 -5t-8.5 1l-99 56q-4 2 -4.5 5t-0.5 7v57q0 4 0.5 7.5t4.5 5.5l48 27q7 3 14 0l47 -27q6 -4 6 -13v-57zM174 668q0 5 -4 8l-31 18q-4 2 -9 0l-30 -18q-4 -3 -4 -8v-36q0 -5 4 -8l30 -18q5 -3 9 0
l31 18q4 3 4 8v36z" />
    <glyph glyph-name="bullet" unicode="&#x2022;" horiz-adv-x="270" 
d="M75 330v59q0 7 6 12l47 28q7 3 14 0l48 -28q5 -4 5 -12v-59q0 -7 -5 -11l-48 -28q-7 -4 -14 0l-47 28q-6 4 -6 11z" />
    <glyph glyph-name="ellipsis" unicode="&#x2026;" horiz-adv-x="665" 
d="M75 42v56q0 9 6 13l47 28q6 4 14 0l48 -28q4 -2 4.5 -5t0.5 -8v-56q0 -4 -0.5 -7.5t-4.5 -5.5l-48 -27q-7 -4 -14 0l-47 27q-6 4 -6 13zM96 52q0 -5 4 -8l31 -18q4 -3 9 0l30 18q4 3 4 8v36q0 5 -4 8l-30 18q-5 2 -9 0l-31 -18q-4 -3 -4 -8v-36zM272 42v56q0 9 6 13
l47 28q6 4 14 0l48 -28q4 -2 4.5 -5t0.5 -8v-56q0 -4 -0.5 -7.5t-4.5 -5.5l-48 -27q-7 -4 -14 0l-47 27q-6 4 -6 13zM293 52q0 -5 4 -8l31 -18q4 -3 9 0l30 18q4 3 4 8v36q0 5 -4 8l-30 18q-5 2 -9 0l-31 -18q-4 -3 -4 -8v-36zM470 42v56q0 9 6 13l47 28q6 4 14 0l48 -28
q4 -2 4.5 -5t0.5 -8v-56q0 -4 -0.5 -7.5t-4.5 -5.5l-48 -27q-7 -4 -14 0l-47 27q-6 4 -6 13zM491 52q0 -5 4 -8l31 -18q4 -3 9 0l30 18q4 3 4 8v36q0 5 -4 8l-30 18q-5 2 -9 0l-31 -18q-4 -3 -4 -8v-36z" />
    <glyph glyph-name="perthousand" unicode="&#x2030;" horiz-adv-x="571" 
d="M322 712q2 5 6.5 7t9.5 0t7.5 -6.5t0.5 -9.5l-245 -694q-2 -5 -7 -7.5t-10 -0.5t-7 6.5t0 9.5zM76 533v59q0 8 6 11l47 28q7 4 14 0l48 -28q5 -3 5 -11v-59q0 -9 -5 -11l-48 -28q-8 -4 -14 0l-47 28q-6 3 -6 11zM97 544q0 -5 4 -8l31 -18q4 -3 9 0l30 18q4 3 4 8v37
q0 5 -4 8l-30 17q-5 2 -9 0l-31 -17q-4 -3 -4 -8v-37zM226 128v59q0 8 6 11l47 28q7 3 14 0l48 -28q5 -3 5 -11v-59q0 -9 -5 -11l-48 -28q-8 -4 -14 0l-47 28q-6 3 -6 11zM247 139q0 -5 4 -8l31 -18q4 -3 9 0l30 18q4 3 4 8v37q0 5 -4 8l-30 17q-5 2 -9 0l-31 -17
q-4 -3 -4 -8v-37zM226 128v59q0 8 6 11l47 28q7 3 14 0l48 -28q5 -3 5 -11v-59q0 -9 -5 -11l-48 -28q-8 -4 -14 0l-47 28q-6 3 -6 11zM247 139q0 -5 4 -8l31 -18q4 -3 9 0l30 18q4 3 4 8v37q0 5 -4 8l-30 17q-5 2 -9 0l-31 -17q-4 -3 -4 -8v-37zM377 128v59q0 8 6 11l47 28
q7 3 14 0l48 -28q5 -3 5 -11v-59q0 -9 -5 -11l-48 -28q-8 -4 -14 0l-47 28q-6 3 -6 11zM398 139q0 -5 4 -8l31 -18q4 -3 9 0l30 18q4 3 4 8v37q0 5 -4 8l-30 17q-5 2 -9 0l-31 -17q-4 -3 -4 -8v-37zM377 128v59q0 8 6 11l47 28q7 3 14 0l48 -28q5 -3 5 -11v-59q0 -9 -5 -11
l-48 -28q-8 -4 -14 0l-47 28q-6 3 -6 11zM398 139q0 -5 4 -8l31 -18q4 -3 9 0l30 18q4 3 4 8v37q0 5 -4 8l-30 17q-5 2 -9 0l-31 -17q-4 -3 -4 -8v-37z" />
    <glyph glyph-name="guilsinglleft" unicode="&#x2039;" horiz-adv-x="270" 
d="M75 620v59q0 7 6 12l47 27q6 4 14 0l48 -27q5 -3 5 -12v-59q0 -9 -5 -11l-46 -27v-25q0 -9 -9 -9q-8 0 -8 9v25l-46 27q-6 4 -6 11zM96 632q0 -5 4 -8l31 -18q4 -3 9 0l30 18q4 3 4 8v36q0 5 -4 8l-30 18q-4 3 -9 0l-31 -18q-4 -3 -4 -8v-36z" />
    <glyph glyph-name="guilsinglright" unicode="&#x203a;" horiz-adv-x="270" 
d="M75 620v59q0 7 6 12l47 27q6 4 14 0l48 -27q5 -3 5 -12v-59q0 -9 -5 -11l-46 -27v-25q0 -9 -9 -9q-8 0 -8 9v25l-46 27q-6 4 -6 11zM96 632q0 -5 4 -8l31 -18q4 -3 9 0l30 18q4 3 4 8v36q0 5 -4 8l-30 18q-4 3 -9 0l-31 -18q-4 -3 -4 -8v-36z" />
    <glyph glyph-name="fraction" unicode="&#x2044;" horiz-adv-x="422" 
d="M322 712q2 5 6.5 7t9.5 0t7.5 -6.5t0.5 -9.5l-245 -694q-2 -5 -7 -7.5t-10 -0.5t-7 6.5t0 9.5z" />
    <glyph glyph-name="Euro" unicode="&#x20ac;" horiz-adv-x="396" 
d="M75 398v194q0 5 4 9l122 115q4 4 9 4t9 -4l122 -115q10 -9 1 -18t-18 0l-114 107l-110 -104v-188h58q12 0 12 -13q0 -12 -12 -12h-58v-26h58q12 0 12 -13q0 -12 -12 -12h-58v-189l110 -103l114 107q9 9 18 0t-1 -18l-122 -116q-3 -3 -9 -3t-9 3l-122 116q-4 4 -4 10v193
h-57q-13 0 -13 12q0 13 13 13h57v26h-57q-13 0 -13 12q0 13 13 13h57z" />
    <glyph glyph-name="uni20BD" unicode="&#x20bd;" horiz-adv-x="415" 
d="M210 690l-110 -104v-213l110 -104l110 104v213zM75 348h-57q-13 0 -13 12q0 13 13 13h57v219q0 6 4 9l122 115q4 4 9 4t9 -4l122 -115q4 -4 4 -9v-224q0 -6 -4 -10l-122 -115q-4 -4 -9 -4q-4 0 -9 4l-101 95v-16h8q12 0 12 -13q0 -12 -12 -12h-8v-284q0 -13 -12 -13
q-13 0 -13 13v284h-57q-13 0 -13 12q0 13 13 13h57v26z" />
    <glyph glyph-name="uni2116" unicode="&#x2116;" horiz-adv-x="567" 
d="M210 690l-110 -103v-574q0 -13 -12 -13q-13 0 -13 13v579q0 5 4 9l122 116q3 3 9 3t9 -3l122 -116q4 -4 4 -9v-579q0 -13 -12 -13q-13 0 -13 13v574zM371 502v56q0 9 6 13l47 28q7 4 14 0l48 -28q4 -2 4.5 -5t0.5 -8v-56q0 -4 -0.5 -7.5t-4.5 -5.5l-48 -27q-7 -4 -14 0
l-47 27q-6 4 -6 13zM392 512q0 -5 4 -8l31 -18q4 -3 9 0l30 18q4 3 4 8v36q0 5 -4 8l-30 18q-4 3 -9 0l-31 -18q-4 -3 -4 -8v-36zM372 416q0 13 13 13h95q12 0 12 -13q0 -12 -12 -12h-95q-13 0 -13 12z" />
    <glyph glyph-name="trademark" unicode="&#x2122;" horiz-adv-x="511" 
d="M149 799l-42 -40q-4 -3 -8 0q-3 4 1 8l50 47q2 2 4 2t4 -2l50 -47q4 -4 1 -8q-4 -3 -8 0l-42 40v-276q0 -5 -5 -5t-5 5v276zM292 804l-45 -43v-238q0 -5 -5 -5t-5 5v240q0 2 1 4l51 47q1 2 3 2t4 -2l47 -44l47 44q2 2 4 2t4 -2l50 -47q2 -2 2 -4v-240q0 -5 -5 -5
q-6 0 -6 5v238l-45 43l-46 -43v-238q0 -5 -5 -5t-5 5v238z" />
    <glyph glyph-name="minus" unicode="&#x2212;" horiz-adv-x="833" 
d="M0 360q0 13 13 13h245q12 0 12 -13t-12 -13h-245q-13 0 -13 13z" />
    <glyph glyph-name="uni2215" unicode="&#x2215;" horiz-adv-x="422" 
d="M322 712q2 5 6.5 7t9.5 0t7.5 -6.5t0.5 -9.5l-245 -694q-2 -5 -7 -7.5t-10 -0.5t-7 6.5t0 9.5z" />
    <glyph glyph-name="uni2219" unicode="&#x2219;" horiz-adv-x="270" 
d="M75 211v56q0 9 6 13l47 28q7 4 14 0l48 -28q4 -2 4.5 -5t0.5 -8v-56q0 -4 -0.5 -7.5t-4.5 -5.5l-48 -27q-7 -4 -14 0l-47 27q-6 4 -6 13zM96 221q0 -5 4 -8l31 -18q4 -3 9 0l30 18q4 3 4 8v36q0 5 -4 8l-30 18q-4 3 -9 0l-31 -18q-4 -3 -4 -8v-36z" />
    <glyph glyph-name="infinity" unicode="&#x221e;" horiz-adv-x="870" 
d="M667 495q5 0 9 -4l115 -122q4 -4 4 -9t-4 -9l-115 -122q-4 -4 -9 -4h-147q-5 0 -9 4l-76 79l-75 -79q-4 -4 -9 -4h-148q-5 0 -9 4l-116 122q-3 3 -3 9t3 9l116 122q4 4 9 4h148q5 0 9 -4l75 -80l76 80q4 4 9 4h147zM765 360l-104 110h-136l-76 -81v-58l76 -81h136z
M105 360l103 -110h137l77 81v58l-77 81h-137z" />
    <glyph glyph-name="uniFB01" unicode="&#xfb01;" horiz-adv-x="522" 
d="M101 373h116q13 0 13 -13q0 -12 -13 -12h-116v-335q0 -13 -12 -13q-13 0 -13 13v579q0 5 4 9l122 115q4 4 9 4t9 -4l122 -115q4 -4 4 -9v-117q0 -13 -12 -13q-13 0 -13 13v111l-110 104l-110 -104v-213zM434 0q-13 0 -13 13v453q0 13 13 13t13 -13v-453q0 -13 -13 -13z
" />
    <glyph glyph-name="uniFB02" unicode="&#xfb02;" horiz-adv-x="521" 
d="M101 373h116q13 0 13 -13q0 -12 -13 -12h-116v-335q0 -13 -12 -13q-13 0 -13 13v579q0 5 4 9l122 115q4 4 9 4t9 -4l122 -115q4 -4 4 -9v-117q0 -13 -12 -13q-13 0 -13 13v111l-110 104l-110 -104v-213zM434 0q-13 0 -13 13v694q0 13 13 13q12 0 12 -13v-694
q0 -13 -12 -13z" />
    <glyph glyph-name="uniFFFC" unicode="&#xfffc;" horiz-adv-x="400" 
d="M8 175l7 -7v0v-1h-1q-2 1 -6 6l-6 -6v-25l6 -5l6 6h1v-1v-1q-6 -7 -8 -7q0 1 -7 7v27q7 7 8 7zM24 175h1h1v-13q3 -4 6 -6q5 5 5 7v11q0 1 1 1h1v0v-14l-7 -7v-19v-1h-1q-1 0 -1 1v19l-7 7v14h1zM56 175v0l8 -7v-12q0 -2 -3 -4q3 -3 3 -4v-13l-1 -1v0q-1 0 -1 1v13l-3 3
q-2 -3 -3 -3q-1 1 -6 5v-18q0 -1 -1 -1v0q-1 0 -1 1v33q6 6 8 7zM75 175v0q1 0 1 -1v-37q0 -2 -1 -3v0q-1 0 -1 1v40h1zM87 175h1v0v-33l6 -5l6 6h1q1 0 1 -1v-1q-7 -7 -8 -7l-8 7v34h1zM111 175v0q1 0 1 -1v-32q1 -1 6 -5q2 2 7 6v0q1 0 1 -1v0q-1 -2 -8 -8v0q-3 2 -8 8v33
h1zM136 175v0q1 0 1 -1v-39l-1 -1v0q-1 0 -1 1v40h1zM155 175v0l8 -7v0q0 -1 -1 -1v0l-7 6q-5 -5 -6 -5v-26q1 0 6 -5q6 6 7 6l1 -1v-1q-7 -7 -8 -7t-8 7v27zM188 175v0q2 -1 8 -7v-33q0 -1 -1 -1v0q-1 0 -1 1v18q-7 -6 -12 -11v-7l-1 -1q-1 0 -1 1v33q1 2 8 7zM206 175h7
l8 -7v-25q0 -2 -8 -9h-7q-1 0 -1 1v40h1zM238 175v0q2 -1 8 -7v-33q0 -1 -1 -1v0q-1 1 -1 3v16q-2 -1 -12 -11v-7q0 -1 -1 -1v0l-1 1v33zM263 175v0l8 -7v-13q-7 -7 -8 -7v0l-6 5v-18q0 -1 -1 -1v0q-1 0 -1 1v33q7 7 8 7zM285 175h1q3 -2 7 -7v0v-1h-1q-5 5 -6 5v-37v-1h-1
v1v37q-2 -1 -6 -5h-1v1v0q2 3 7 7zM308 175v0q1 0 8 -7v-33q0 -1 -1 -1v0q-1 0 -1 1v18q-4 -3 -12 -11v-7v-1h-1l-1 1v33zM331 175v0q2 -1 8 -7v0q0 -1 -1 -1v0q-1 0 -6 5v-37l-1 -1v0q-1 0 -1 1v37l-6 -5v0q-1 0 -1 1v0zM348 175v0h1v-40q0 -1 -1 -1v0q-1 0 -1 1v40h1z
M367 175v0l8 -7v-26q0 -1 -8 -8v0q-1 0 -8 8v26q7 7 8 7zM392 175v0l8 -7v-33q0 -1 -1 -1v0q-1 0 -1 1v32q0 1 -6 6q-6 -5 -6 -6v-32q0 -1 -1 -1v0l-1 1v33q2 3 8 7zM207 173v-36h6l6 5v25q0 1 -7 6h-4h-1zM56 173l-6 -6v-11l6 -6l6 6v11q0 1 -6 6zM188 173q-6 -5 -6 -6v-22
q8 7 12 11v11q-5 6 -6 6zM238 173q-6 -5 -6 -6v-22q7 6 12 11v11zM257 167v-11q1 -1 6 -5q1 0 6 5v11q0 1 -6 6q-1 0 -6 -6zM302 167v-22l12 11v11l-6 6q-6 -5 -6 -6zM367 173l-6 -6v-24l6 -6l6 5v25q0 1 -6 6zM194 108h1q3 -3 6 -7q-1 -9 -4 -9l-4 -4l5 -6q-1 -9 -3 -9
q-4 -3 -7 -6h-1q-6 7 -6 8q4 27 6 27q1 1 7 6zM212 108h1q1 0 1 -1q-3 -11 -3 -13l5 -5q7 5 7 7q2 12 3 12v0q1 0 1 -1q-2 -15 -4 -15q-7 -4 -7 -7q-2 -16 -3 -18h-1q-1 0 -1 1q4 19 4 20q-6 5 -6 6q2 14 3 14zM186 89h4q2 0 8 6l1 5l-5 6l-7 -6q-1 -10 -1 -11zM185 87v-1
l-2 -11l5 -5q7 5 7 6l1 5l-6 6h-5zM110 41v0q1 0 1 -1v-29l12 10v19l1 1v0q1 0 1 -1v-39l-1 -1q-1 0 -1 1v17q-1 0 -12 -11v-6l-1 -1q-1 0 -1 1v39q0 1 1 1zM176 41l7 -7v-13l-2 -3l2 -4v-13v-1h-1v1v12l-3 3l-3 -3l-6 6v-18q0 -1 -1 -1v0q-1 0 -1 1v33q7 7 8 7zM258 41v0
q1 0 8 -7v-33q0 -1 -1 -1v0q-1 0 -1 1v18l-12 -12v-6l-1 -1q-1 0 -1 1v33zM276 41h7q7 -6 8 -7v-27l-8 -7h-7q-1 0 -1 1v39q0 1 1 1zM277 38v-36h6l6 6v25q0 1 -7 6h-4q-1 0 -1 -1zM170 33v-11q5 -6 6 -6l6 6v11l-6 6zM258 39l-6 -6v-22q12 10 12 11v11zM142 28q1 -1 7 -8v0
l-12 -13q4 -5 5 -5q5 6 6 6h1v0v-1l-7 -7q-1 0 -8 7v13q6 7 8 8zM201 28v0q8 -7 8 -8q-13 -12 -13 -13l5 -5q2 3 6 6h1h1v-1l-8 -7v0q-1 0 -8 7v13q2 3 8 8zM225 28v0q8 -7 8 -8v0l-14 -13l6 -5q0 1 6 6h1h1v-1q-3 -3 -8 -7v0q-4 3 -8 7v1l13 12v1q-1 0 -5 4q-1 -1 -7 -6
l-1 1v0q1 2 8 8zM201 25l-6 -5v-10l11 10zM136 19v-10l11 11l-5 5h-1z" />
    <glyph glyph-name="U.001" 
d="M320 133v574q0 13 13 13q12 0 12 -13v-694q0 -13 -12 -13q-13 0 -13 13v85l-101 -95q-3 -3 -9 -3t-9 3l-122 116q-4 4 -4 9v579q0 13 13 13q12 0 12 -13v-574l110 -103z" />
    <glyph glyph-name="B.001" 
d="M75 592q0 5 4 9l122 115q4 4 9 4t9 -4l122 -115q4 -4 4 -9v-224q0 -6 -4 -10l-51 -48l51 -49q4 -4 4 -9v-123q0 -6 -4 -10l-122 -116q-3 -3 -9 -3t-9 3l-122 116q-4 4 -4 10v463zM320 133v114l-48 45l-53 -49q-3 -4 -9 -4q-5 0 -9 4l-101 95v-205l110 -103zM210 690
l-110 -104v-213l110 -104l110 104v213z" />
    <glyph glyph-name="A.001" 
d="M100 140v-127q0 -13 -12 -13q-13 0 -13 13v579q0 5 4 9l122 115q4 4 9 4t9 -4l122 -115q4 -4 4 -9v-579q0 -13 -12 -13q-13 0 -13 13v127h-220zM210 690l-110 -104v-420h220v420z" />
    <glyph glyph-name="E.001" horiz-adv-x="421" 
d="M219 491q9 -9 0 -18l-119 -111v-229l110 -103l114 107q9 9 18 0t-1 -18l-122 -116q-3 -3 -9 -3t-9 3l-122 116q-4 4 -4 9v464q0 5 4 9l122 115q4 4 9 4t9 -4l122 -115q10 -9 1 -18t-18 0l-114 107l-110 -104v-189l101 95q4 4 9 3.5t9 -4.5z" />
    <glyph glyph-name="F.001" horiz-adv-x="421" 
d="M219 491q9 -9 0 -18l-119 -111v-349q0 -13 -12 -13q-13 0 -13 13v579q0 5 4 9l122 115q4 4 9 4t9 -4l122 -115q10 -9 1 -18t-18 0l-114 107l-110 -104v-189l101 95q4 4 9 3.5t9 -4.5z" />
    <glyph glyph-name="J.001" 
d="M210 30l110 103v453l-110 104l-114 -107q-9 -9 -18 0q-8 9 1 18l122 115q4 4 9 4t9 -4l122 -115q4 -4 4 -8v-465q0 -5 -4 -9l-122 -116q-3 -3 -9 -3t-9 3l-122 116q-9 9 -1 18q9 9 18 0z" />
    <glyph glyph-name="P.001" 
d="M345 592v-224q0 -6 -4 -10l-241 -227v-118q0 -13 -12 -13q-13 0 -13 13v579q0 5 4 9l122 115q4 4 9 4t9 -4l122 -115q4 -4 4 -9zM100 166l220 207v213l-110 104l-110 -104v-420z" />
    <glyph glyph-name="R.001" 
d="M345 592v-224q0 -6 -4 -10l-55 -52l55 -52q4 -4 4 -9v-232q0 -13 -12 -13q-13 0 -13 13v227l-52 49l-168 -158v-118q0 -13 -12 -13q-13 0 -13 13v579q0 5 4 9l122 115q4 4 9 4t9 -4l122 -115q4 -4 4 -9zM100 167l220 206v213l-110 104l-110 -104v-419z" />
    <glyph glyph-name="K.001" 
d="M100 167l220 206v334q0 13 13 13q12 0 12 -13v-339q0 -6 -4 -10l-55 -52l55 -52q4 -4 4 -9v-232q0 -13 -12 -13q-13 0 -13 13v227l-52 49l-168 -158v-118q0 -13 -12 -13q-13 0 -13 13v694q0 13 13 13q12 0 12 -13v-540z" />
    <glyph glyph-name="X.001" 
d="M320 481v226q0 13 13 13q12 0 12 -13v-231q0 -6 -4 -10l-112 -106l112 -106q4 -4 4 -11v-230q0 -13 -12 -13q-13 0 -13 13v226l-110 103l-110 -103v-226q0 -13 -12 -13q-13 0 -13 13v230q0 7 4 11l113 106l-113 106q-4 4 -4 10v231q0 13 13 13q12 0 12 -13v-226l110 -104
z" />
    <glyph glyph-name="i.001" horiz-adv-x="270" 
d="M135 0q-13 0 -13 13v332l-41 24q-6 4 -6 13v57q0 8 6 12l47 28q8 4 14 0l48 -28q4 -2 4.5 -5t0.5 -7v-57q0 -4 -0.5 -7.5t-4.5 -5.5l-42 -24v-332q0 -13 -13 -13zM170 384q4 3 4 8v36q0 5 -4 8l-30 18q-5 2 -9 0l-31 -18q-3 -2 -3 -8v-36q0 -6 3 -8l22 -13v27q0 12 13 12
t13 -12v-27z" />
  </font>
</defs>
</svg>
